G04 #@! TF.FileFunction,Legend,Top*
%FSLAX46Y46*%
G04 Gerber Fmt 4.6, Leading zero omitted, Abs format (unit mm)*
G04 Created by KiCad (PCBNEW 0.201510311201+6287~30~ubuntu14.04.1-product) date dom 03 abr 2016 23:42:29 CEST*
%MOMM*%
G01*
G04 APERTURE LIST*
%ADD10C,0.020000*%
%ADD11C,0.099060*%
%ADD12C,0.078740*%
%ADD13C,0.200000*%
%ADD14C,0.130000*%
G04 APERTURE END LIST*
D10*
D11*
X154676000Y-178362000D02*
G75*
G03X154676000Y-178362000I-127000J0D01*
G01*
X155692000Y-178362000D02*
X154676000Y-178362000D01*
X154676000Y-178362000D02*
X154676000Y-176838000D01*
X154676000Y-176838000D02*
X155692000Y-176838000D01*
X156708000Y-176838000D02*
X157724000Y-176838000D01*
X157724000Y-176838000D02*
X157724000Y-178362000D01*
X157724000Y-178362000D02*
X156708000Y-178362000D01*
D12*
X151304090Y-185406480D02*
G75*
G03X151304090Y-185406480I-159070J0D01*
G01*
X148699000Y-186265000D02*
X148699000Y-185249000D01*
X151302500Y-186265000D02*
X151302500Y-185249000D01*
X148699000Y-185249000D02*
X151302500Y-185249000D01*
X151302500Y-186265000D02*
X148699000Y-186265000D01*
D11*
X151747000Y-177595000D02*
G75*
G03X151747000Y-177595000I-127000J0D01*
G01*
X150477000Y-177595000D02*
X151493000Y-177595000D01*
X151493000Y-177595000D02*
X151493000Y-179119000D01*
X151493000Y-179119000D02*
X150477000Y-179119000D01*
X149461000Y-179119000D02*
X148445000Y-179119000D01*
X148445000Y-179119000D02*
X148445000Y-177595000D01*
X148445000Y-177595000D02*
X149461000Y-177595000D01*
X148445000Y-181369000D02*
G75*
G03X148445000Y-181369000I-127000J0D01*
G01*
X149461000Y-181369000D02*
X148445000Y-181369000D01*
X148445000Y-181369000D02*
X148445000Y-179845000D01*
X148445000Y-179845000D02*
X149461000Y-179845000D01*
X150477000Y-179845000D02*
X151493000Y-179845000D01*
X151493000Y-179845000D02*
X151493000Y-181369000D01*
X151493000Y-181369000D02*
X150477000Y-181369000D01*
X148445000Y-183419000D02*
G75*
G03X148445000Y-183419000I-127000J0D01*
G01*
X149461000Y-183419000D02*
X148445000Y-183419000D01*
X148445000Y-183419000D02*
X148445000Y-181895000D01*
X148445000Y-181895000D02*
X149461000Y-181895000D01*
X150477000Y-181895000D02*
X151493000Y-181895000D01*
X151493000Y-181895000D02*
X151493000Y-183419000D01*
X151493000Y-183419000D02*
X150477000Y-183419000D01*
X158565000Y-184949000D02*
G75*
G03X158565000Y-184949000I-127000J0D01*
G01*
X158438000Y-186092000D02*
X158438000Y-185076000D01*
X158438000Y-185076000D02*
X159962000Y-185076000D01*
X159962000Y-185076000D02*
X159962000Y-186092000D01*
X159962000Y-187108000D02*
X159962000Y-188124000D01*
X159962000Y-188124000D02*
X158438000Y-188124000D01*
X158438000Y-188124000D02*
X158438000Y-187108000D01*
X160645000Y-178419000D02*
G75*
G03X160645000Y-178419000I-127000J0D01*
G01*
X161661000Y-178419000D02*
X160645000Y-178419000D01*
X160645000Y-178419000D02*
X160645000Y-176895000D01*
X160645000Y-176895000D02*
X161661000Y-176895000D01*
X162677000Y-176895000D02*
X163693000Y-176895000D01*
X163693000Y-176895000D02*
X163693000Y-178419000D01*
X163693000Y-178419000D02*
X162677000Y-178419000D01*
X167765000Y-177149000D02*
G75*
G03X167765000Y-177149000I-127000J0D01*
G01*
X167638000Y-178292000D02*
X167638000Y-177276000D01*
X167638000Y-177276000D02*
X169162000Y-177276000D01*
X169162000Y-177276000D02*
X169162000Y-178292000D01*
X169162000Y-179308000D02*
X169162000Y-180324000D01*
X169162000Y-180324000D02*
X167638000Y-180324000D01*
X167638000Y-180324000D02*
X167638000Y-179308000D01*
X165089000Y-187651000D02*
G75*
G03X165089000Y-187651000I-127000J0D01*
G01*
X164962000Y-186508000D02*
X164962000Y-187524000D01*
X164962000Y-187524000D02*
X163438000Y-187524000D01*
X163438000Y-187524000D02*
X163438000Y-186508000D01*
X163438000Y-185492000D02*
X163438000Y-184476000D01*
X163438000Y-184476000D02*
X164962000Y-184476000D01*
X164962000Y-184476000D02*
X164962000Y-185492000D01*
X160965000Y-184949000D02*
G75*
G03X160965000Y-184949000I-127000J0D01*
G01*
X160838000Y-186092000D02*
X160838000Y-185076000D01*
X160838000Y-185076000D02*
X162362000Y-185076000D01*
X162362000Y-185076000D02*
X162362000Y-186092000D01*
X162362000Y-187108000D02*
X162362000Y-188124000D01*
X162362000Y-188124000D02*
X160838000Y-188124000D01*
X160838000Y-188124000D02*
X160838000Y-187108000D01*
X155448000Y-188722000D02*
G75*
G03X155448000Y-188722000I-127000J0D01*
G01*
X155321000Y-187579000D02*
X155321000Y-188595000D01*
X155321000Y-188595000D02*
X153797000Y-188595000D01*
X153797000Y-188595000D02*
X153797000Y-187579000D01*
X153797000Y-186563000D02*
X153797000Y-185547000D01*
X153797000Y-185547000D02*
X155321000Y-185547000D01*
X155321000Y-185547000D02*
X155321000Y-186563000D01*
D13*
X157019000Y-179857000D02*
G75*
G03X157019000Y-179857000I-350000J0D01*
G01*
X161119000Y-184207000D02*
X155819000Y-184207000D01*
X155819000Y-184207000D02*
X155819000Y-179007000D01*
X155819000Y-179007000D02*
X161119000Y-179007000D01*
X161119000Y-179007000D02*
X161119000Y-184207000D01*
D11*
X157734000Y-188722000D02*
G75*
G03X157734000Y-188722000I-127000J0D01*
G01*
X157607000Y-187579000D02*
X157607000Y-188595000D01*
X157607000Y-188595000D02*
X156083000Y-188595000D01*
X156083000Y-188595000D02*
X156083000Y-187579000D01*
X156083000Y-186563000D02*
X156083000Y-185547000D01*
X156083000Y-185547000D02*
X157607000Y-185547000D01*
X157607000Y-185547000D02*
X157607000Y-186563000D01*
X167165000Y-182549000D02*
G75*
G03X167165000Y-182549000I-127000J0D01*
G01*
X167038000Y-183692000D02*
X167038000Y-182676000D01*
X167038000Y-182676000D02*
X168562000Y-182676000D01*
X168562000Y-182676000D02*
X168562000Y-183692000D01*
X168562000Y-184708000D02*
X168562000Y-185724000D01*
X168562000Y-185724000D02*
X167038000Y-185724000D01*
X167038000Y-185724000D02*
X167038000Y-184708000D01*
X166089000Y-181651000D02*
G75*
G03X166089000Y-181651000I-127000J0D01*
G01*
X165962000Y-180508000D02*
X165962000Y-181524000D01*
X165962000Y-181524000D02*
X164438000Y-181524000D01*
X164438000Y-181524000D02*
X164438000Y-180508000D01*
X164438000Y-179492000D02*
X164438000Y-178476000D01*
X164438000Y-178476000D02*
X165962000Y-178476000D01*
X165962000Y-178476000D02*
X165962000Y-179492000D01*
D14*
X154991666Y-176432143D02*
X154960714Y-176463095D01*
X154867857Y-176494048D01*
X154805952Y-176494048D01*
X154713095Y-176463095D01*
X154651190Y-176401190D01*
X154620238Y-176339286D01*
X154589286Y-176215476D01*
X154589286Y-176122619D01*
X154620238Y-175998810D01*
X154651190Y-175936905D01*
X154713095Y-175875000D01*
X154805952Y-175844048D01*
X154867857Y-175844048D01*
X154960714Y-175875000D01*
X154991666Y-175905952D01*
X155610714Y-176494048D02*
X155239286Y-176494048D01*
X155425000Y-176494048D02*
X155425000Y-175844048D01*
X155363095Y-175936905D01*
X155301190Y-175998810D01*
X155239286Y-176029762D01*
X147076238Y-186051048D02*
X147076238Y-185401048D01*
X147231000Y-185401048D01*
X147323857Y-185432000D01*
X147385762Y-185493905D01*
X147416714Y-185555810D01*
X147447666Y-185679619D01*
X147447666Y-185772476D01*
X147416714Y-185896286D01*
X147385762Y-185958190D01*
X147323857Y-186020095D01*
X147231000Y-186051048D01*
X147076238Y-186051048D01*
X148066714Y-186051048D02*
X147695286Y-186051048D01*
X147881000Y-186051048D02*
X147881000Y-185401048D01*
X147819095Y-185493905D01*
X147757190Y-185555810D01*
X147695286Y-185586762D01*
X147320666Y-178524048D02*
X147104000Y-178214524D01*
X146949238Y-178524048D02*
X146949238Y-177874048D01*
X147196857Y-177874048D01*
X147258762Y-177905000D01*
X147289714Y-177935952D01*
X147320666Y-177997857D01*
X147320666Y-178090714D01*
X147289714Y-178152619D01*
X147258762Y-178183571D01*
X147196857Y-178214524D01*
X146949238Y-178214524D01*
X147939714Y-178524048D02*
X147568286Y-178524048D01*
X147754000Y-178524048D02*
X147754000Y-177874048D01*
X147692095Y-177966905D01*
X147630190Y-178028810D01*
X147568286Y-178059762D01*
X147320666Y-180520048D02*
X147104000Y-180210524D01*
X146949238Y-180520048D02*
X146949238Y-179870048D01*
X147196857Y-179870048D01*
X147258762Y-179901000D01*
X147289714Y-179931952D01*
X147320666Y-179993857D01*
X147320666Y-180086714D01*
X147289714Y-180148619D01*
X147258762Y-180179571D01*
X147196857Y-180210524D01*
X146949238Y-180210524D01*
X147568286Y-179931952D02*
X147599238Y-179901000D01*
X147661143Y-179870048D01*
X147815905Y-179870048D01*
X147877809Y-179901000D01*
X147908762Y-179931952D01*
X147939714Y-179993857D01*
X147939714Y-180055762D01*
X147908762Y-180148619D01*
X147537333Y-180520048D01*
X147939714Y-180520048D01*
X147320666Y-182697048D02*
X147104000Y-182387524D01*
X146949238Y-182697048D02*
X146949238Y-182047048D01*
X147196857Y-182047048D01*
X147258762Y-182078000D01*
X147289714Y-182108952D01*
X147320666Y-182170857D01*
X147320666Y-182263714D01*
X147289714Y-182325619D01*
X147258762Y-182356571D01*
X147196857Y-182387524D01*
X146949238Y-182387524D01*
X147537333Y-182047048D02*
X147939714Y-182047048D01*
X147723047Y-182294667D01*
X147815905Y-182294667D01*
X147877809Y-182325619D01*
X147908762Y-182356571D01*
X147939714Y-182418476D01*
X147939714Y-182573238D01*
X147908762Y-182635143D01*
X147877809Y-182666095D01*
X147815905Y-182697048D01*
X147630190Y-182697048D01*
X147568286Y-182666095D01*
X147537333Y-182635143D01*
X158791666Y-188994048D02*
X158575000Y-188684524D01*
X158420238Y-188994048D02*
X158420238Y-188344048D01*
X158667857Y-188344048D01*
X158729762Y-188375000D01*
X158760714Y-188405952D01*
X158791666Y-188467857D01*
X158791666Y-188560714D01*
X158760714Y-188622619D01*
X158729762Y-188653571D01*
X158667857Y-188684524D01*
X158420238Y-188684524D01*
X159379762Y-188344048D02*
X159070238Y-188344048D01*
X159039286Y-188653571D01*
X159070238Y-188622619D01*
X159132143Y-188591667D01*
X159286905Y-188591667D01*
X159348809Y-188622619D01*
X159379762Y-188653571D01*
X159410714Y-188715476D01*
X159410714Y-188870238D01*
X159379762Y-188932143D01*
X159348809Y-188963095D01*
X159286905Y-188994048D01*
X159132143Y-188994048D01*
X159070238Y-188963095D01*
X159039286Y-188932143D01*
X160991666Y-176494048D02*
X160775000Y-176184524D01*
X160620238Y-176494048D02*
X160620238Y-175844048D01*
X160867857Y-175844048D01*
X160929762Y-175875000D01*
X160960714Y-175905952D01*
X160991666Y-175967857D01*
X160991666Y-176060714D01*
X160960714Y-176122619D01*
X160929762Y-176153571D01*
X160867857Y-176184524D01*
X160620238Y-176184524D01*
X161548809Y-176060714D02*
X161548809Y-176494048D01*
X161394047Y-175813095D02*
X161239286Y-176277381D01*
X161641666Y-176277381D01*
X167991666Y-181194048D02*
X167775000Y-180884524D01*
X167620238Y-181194048D02*
X167620238Y-180544048D01*
X167867857Y-180544048D01*
X167929762Y-180575000D01*
X167960714Y-180605952D01*
X167991666Y-180667857D01*
X167991666Y-180760714D01*
X167960714Y-180822619D01*
X167929762Y-180853571D01*
X167867857Y-180884524D01*
X167620238Y-180884524D01*
X168548809Y-180544048D02*
X168425000Y-180544048D01*
X168363095Y-180575000D01*
X168332143Y-180605952D01*
X168270238Y-180698810D01*
X168239286Y-180822619D01*
X168239286Y-181070238D01*
X168270238Y-181132143D01*
X168301190Y-181163095D01*
X168363095Y-181194048D01*
X168486905Y-181194048D01*
X168548809Y-181163095D01*
X168579762Y-181132143D01*
X168610714Y-181070238D01*
X168610714Y-180915476D01*
X168579762Y-180853571D01*
X168548809Y-180822619D01*
X168486905Y-180791667D01*
X168363095Y-180791667D01*
X168301190Y-180822619D01*
X168270238Y-180853571D01*
X168239286Y-180915476D01*
X163791666Y-188494048D02*
X163575000Y-188184524D01*
X163420238Y-188494048D02*
X163420238Y-187844048D01*
X163667857Y-187844048D01*
X163729762Y-187875000D01*
X163760714Y-187905952D01*
X163791666Y-187967857D01*
X163791666Y-188060714D01*
X163760714Y-188122619D01*
X163729762Y-188153571D01*
X163667857Y-188184524D01*
X163420238Y-188184524D01*
X164008333Y-187844048D02*
X164441666Y-187844048D01*
X164163095Y-188494048D01*
X161191666Y-188994048D02*
X160975000Y-188684524D01*
X160820238Y-188994048D02*
X160820238Y-188344048D01*
X161067857Y-188344048D01*
X161129762Y-188375000D01*
X161160714Y-188405952D01*
X161191666Y-188467857D01*
X161191666Y-188560714D01*
X161160714Y-188622619D01*
X161129762Y-188653571D01*
X161067857Y-188684524D01*
X160820238Y-188684524D01*
X161563095Y-188622619D02*
X161501190Y-188591667D01*
X161470238Y-188560714D01*
X161439286Y-188498810D01*
X161439286Y-188467857D01*
X161470238Y-188405952D01*
X161501190Y-188375000D01*
X161563095Y-188344048D01*
X161686905Y-188344048D01*
X161748809Y-188375000D01*
X161779762Y-188405952D01*
X161810714Y-188467857D01*
X161810714Y-188498810D01*
X161779762Y-188560714D01*
X161748809Y-188591667D01*
X161686905Y-188622619D01*
X161563095Y-188622619D01*
X161501190Y-188653571D01*
X161470238Y-188684524D01*
X161439286Y-188746429D01*
X161439286Y-188870238D01*
X161470238Y-188932143D01*
X161501190Y-188963095D01*
X161563095Y-188994048D01*
X161686905Y-188994048D01*
X161748809Y-188963095D01*
X161779762Y-188932143D01*
X161810714Y-188870238D01*
X161810714Y-188746429D01*
X161779762Y-188684524D01*
X161748809Y-188653571D01*
X161686905Y-188622619D01*
X153991666Y-185132143D02*
X153960714Y-185163095D01*
X153867857Y-185194048D01*
X153805952Y-185194048D01*
X153713095Y-185163095D01*
X153651190Y-185101190D01*
X153620238Y-185039286D01*
X153589286Y-184915476D01*
X153589286Y-184822619D01*
X153620238Y-184698810D01*
X153651190Y-184636905D01*
X153713095Y-184575000D01*
X153805952Y-184544048D01*
X153867857Y-184544048D01*
X153960714Y-184575000D01*
X153991666Y-184605952D01*
X154239286Y-184605952D02*
X154270238Y-184575000D01*
X154332143Y-184544048D01*
X154486905Y-184544048D01*
X154548809Y-184575000D01*
X154579762Y-184605952D01*
X154610714Y-184667857D01*
X154610714Y-184729762D01*
X154579762Y-184822619D01*
X154208333Y-185194048D01*
X154610714Y-185194048D01*
X158365476Y-178694048D02*
X158365476Y-178044048D01*
X159046428Y-178632143D02*
X159015476Y-178663095D01*
X158922619Y-178694048D01*
X158860714Y-178694048D01*
X158767857Y-178663095D01*
X158705952Y-178601190D01*
X158675000Y-178539286D01*
X158644048Y-178415476D01*
X158644048Y-178322619D01*
X158675000Y-178198810D01*
X158705952Y-178136905D01*
X158767857Y-178075000D01*
X158860714Y-178044048D01*
X158922619Y-178044048D01*
X159015476Y-178075000D01*
X159046428Y-178105952D01*
X159665476Y-178694048D02*
X159294048Y-178694048D01*
X159479762Y-178694048D02*
X159479762Y-178044048D01*
X159417857Y-178136905D01*
X159355952Y-178198810D01*
X159294048Y-178229762D01*
X156291666Y-185294048D02*
X156075000Y-184984524D01*
X155920238Y-185294048D02*
X155920238Y-184644048D01*
X156167857Y-184644048D01*
X156229762Y-184675000D01*
X156260714Y-184705952D01*
X156291666Y-184767857D01*
X156291666Y-184860714D01*
X156260714Y-184922619D01*
X156229762Y-184953571D01*
X156167857Y-184984524D01*
X155920238Y-184984524D01*
X156601190Y-185294048D02*
X156725000Y-185294048D01*
X156786905Y-185263095D01*
X156817857Y-185232143D01*
X156879762Y-185139286D01*
X156910714Y-185015476D01*
X156910714Y-184767857D01*
X156879762Y-184705952D01*
X156848809Y-184675000D01*
X156786905Y-184644048D01*
X156663095Y-184644048D01*
X156601190Y-184675000D01*
X156570238Y-184705952D01*
X156539286Y-184767857D01*
X156539286Y-184922619D01*
X156570238Y-184984524D01*
X156601190Y-185015476D01*
X156663095Y-185046429D01*
X156786905Y-185046429D01*
X156848809Y-185015476D01*
X156879762Y-184984524D01*
X156910714Y-184922619D01*
X167782142Y-186694048D02*
X167565476Y-186384524D01*
X167410714Y-186694048D02*
X167410714Y-186044048D01*
X167658333Y-186044048D01*
X167720238Y-186075000D01*
X167751190Y-186105952D01*
X167782142Y-186167857D01*
X167782142Y-186260714D01*
X167751190Y-186322619D01*
X167720238Y-186353571D01*
X167658333Y-186384524D01*
X167410714Y-186384524D01*
X168401190Y-186694048D02*
X168029762Y-186694048D01*
X168215476Y-186694048D02*
X168215476Y-186044048D01*
X168153571Y-186136905D01*
X168091666Y-186198810D01*
X168029762Y-186229762D01*
X168803571Y-186044048D02*
X168865476Y-186044048D01*
X168927381Y-186075000D01*
X168958333Y-186105952D01*
X168989286Y-186167857D01*
X169020238Y-186291667D01*
X169020238Y-186446429D01*
X168989286Y-186570238D01*
X168958333Y-186632143D01*
X168927381Y-186663095D01*
X168865476Y-186694048D01*
X168803571Y-186694048D01*
X168741667Y-186663095D01*
X168710714Y-186632143D01*
X168679762Y-186570238D01*
X168648810Y-186446429D01*
X168648810Y-186291667D01*
X168679762Y-186167857D01*
X168710714Y-186105952D01*
X168741667Y-186075000D01*
X168803571Y-186044048D01*
X164282142Y-182394048D02*
X164065476Y-182084524D01*
X163910714Y-182394048D02*
X163910714Y-181744048D01*
X164158333Y-181744048D01*
X164220238Y-181775000D01*
X164251190Y-181805952D01*
X164282142Y-181867857D01*
X164282142Y-181960714D01*
X164251190Y-182022619D01*
X164220238Y-182053571D01*
X164158333Y-182084524D01*
X163910714Y-182084524D01*
X164901190Y-182394048D02*
X164529762Y-182394048D01*
X164715476Y-182394048D02*
X164715476Y-181744048D01*
X164653571Y-181836905D01*
X164591666Y-181898810D01*
X164529762Y-181929762D01*
X165520238Y-182394048D02*
X165148810Y-182394048D01*
X165334524Y-182394048D02*
X165334524Y-181744048D01*
X165272619Y-181836905D01*
X165210714Y-181898810D01*
X165148810Y-181929762D01*
M02*
