G04 #@! TF.FileFunction,Copper,L1,Top,Signal*
%FSLAX46Y46*%
G04 Gerber Fmt 4.6, Leading zero omitted, Abs format (unit mm)*
G04 Created by KiCad (PCBNEW 4.0.1-3.201512221402+6198~38~ubuntu14.04.1-stable) date Tue 02 Feb 2016 05:40:22 PM CET*
%MOMM*%
G01*
G04 APERTURE LIST*
%ADD10C,0.020000*%
%ADD11C,1.500000*%
%ADD12O,3.000000X1.100000*%
%ADD13R,0.889000X1.397000*%
%ADD14R,0.800100X1.000760*%
%ADD15R,1.397000X0.889000*%
%ADD16R,2.200000X0.700000*%
%ADD17C,0.900000*%
%ADD18C,0.508000*%
%ADD19C,0.381000*%
%ADD20C,0.635000*%
%ADD21C,0.254000*%
G04 APERTURE END LIST*
D10*
D11*
X142969000Y-178857000D03*
X142969000Y-181357000D03*
X142969000Y-183357000D03*
X142969000Y-185857000D03*
D12*
X140869000Y-176507000D03*
X140869000Y-188207000D03*
D13*
X158521500Y-177557000D03*
X156616500Y-177557000D03*
D14*
X149969000Y-186856820D03*
X149016500Y-184657180D03*
X150921500Y-184657180D03*
D13*
X150921500Y-178357000D03*
X149016500Y-178357000D03*
X149016500Y-180607000D03*
X150921500Y-180607000D03*
X149016500Y-182657000D03*
X150921500Y-182657000D03*
D15*
X159131000Y-186118500D03*
X159131000Y-188023500D03*
D13*
X161216500Y-177657000D03*
X163121500Y-177657000D03*
X165766500Y-177607000D03*
X167671500Y-177607000D03*
X165952500Y-186250000D03*
X164047500Y-186250000D03*
D15*
X161469000Y-186154500D03*
X161469000Y-188059500D03*
X154559000Y-188023500D03*
X154559000Y-186118500D03*
D16*
X154659000Y-179702000D03*
X154659000Y-180972000D03*
X154659000Y-182242000D03*
X154659000Y-183512000D03*
X162279000Y-183512000D03*
X162279000Y-182242000D03*
X162279000Y-180972000D03*
X162279000Y-179702000D03*
D15*
X156845000Y-188023500D03*
X156845000Y-186118500D03*
D13*
X165297500Y-183500000D03*
X167202500Y-183500000D03*
X165297500Y-181250000D03*
X167202500Y-181250000D03*
D17*
X158500000Y-179250000D03*
X169250000Y-187000000D03*
X159169000Y-182857000D03*
X162900000Y-186200000D03*
X164469000Y-177657000D03*
X169500000Y-177500000D03*
X167969000Y-185107000D03*
X169469000Y-183857000D03*
X169469000Y-180857000D03*
D18*
X158500000Y-179250000D02*
X158500000Y-177578500D01*
D19*
X158500000Y-177578500D02*
X158521500Y-177557000D01*
X162279000Y-179702000D02*
X162114000Y-179702000D01*
X162114000Y-179702000D02*
X161216500Y-178804500D01*
X161216500Y-178804500D02*
X161216500Y-177657000D01*
D18*
X158521500Y-177557000D02*
X161116500Y-177557000D01*
D19*
X161116500Y-177557000D02*
X161216500Y-177657000D01*
D18*
X158521500Y-177557000D02*
X158521500Y-176509500D01*
X152769000Y-178357000D02*
X150921500Y-178357000D01*
X154869000Y-176257000D02*
X152769000Y-178357000D01*
X158269000Y-176257000D02*
X154869000Y-176257000D01*
X158521500Y-176509500D02*
X158269000Y-176257000D01*
X162279000Y-179702000D02*
X161414000Y-179702000D01*
D19*
X162421500Y-179559500D02*
X162279000Y-179702000D01*
D20*
X142969000Y-178857000D02*
X145969000Y-178857000D01*
X150921500Y-177309500D02*
X150921500Y-178357000D01*
X150469000Y-176857000D02*
X150921500Y-177309500D01*
X147969000Y-176857000D02*
X150469000Y-176857000D01*
X145969000Y-178857000D02*
X147969000Y-176857000D01*
D18*
X161469000Y-188059500D02*
X168190500Y-188059500D01*
X168190500Y-188059500D02*
X169250000Y-187000000D01*
X159131000Y-188023500D02*
X161433000Y-188023500D01*
D19*
X161433000Y-188023500D02*
X161469000Y-188059500D01*
X154659000Y-183512000D02*
X156314000Y-183512000D01*
X156866500Y-182959500D02*
X156866500Y-177557000D01*
X156314000Y-183512000D02*
X156866500Y-182959500D01*
X159131000Y-188023500D02*
X159131000Y-187419000D01*
X156845000Y-186833000D02*
X156845000Y-186118500D01*
X157069000Y-187057000D02*
X156845000Y-186833000D01*
X158769000Y-187057000D02*
X157069000Y-187057000D01*
X159131000Y-187419000D02*
X158769000Y-187057000D01*
X158877000Y-188023500D02*
X159131000Y-188023500D01*
D18*
X149969000Y-186856820D02*
X152069180Y-186856820D01*
X152069180Y-186856820D02*
X152807500Y-186118500D01*
X152807500Y-186118500D02*
X154559000Y-186118500D01*
X154659000Y-186018500D02*
X154559000Y-186118500D01*
X154559000Y-186118500D02*
X156845000Y-186118500D01*
X154659000Y-183512000D02*
X154659000Y-186018500D01*
X142969000Y-185857000D02*
X143569000Y-185257000D01*
X148568820Y-186856820D02*
X149969000Y-186856820D01*
X146969000Y-185257000D02*
X148568820Y-186856820D01*
X143569000Y-185257000D02*
X146969000Y-185257000D01*
X149016500Y-182657000D02*
X149016500Y-184657180D01*
X142969000Y-183357000D02*
X145469000Y-183357000D01*
X145469000Y-183357000D02*
X145969000Y-182857000D01*
X145969000Y-182857000D02*
X149016500Y-182857000D01*
D21*
X150921500Y-184657180D02*
X149969000Y-183704680D01*
X149969000Y-181559500D02*
X149016500Y-180607000D01*
X149969000Y-183704680D02*
X149969000Y-181559500D01*
D18*
X149016500Y-178357000D02*
X149016500Y-180607000D01*
X149016500Y-180607000D02*
X145719000Y-180607000D01*
X145719000Y-180607000D02*
X144969000Y-181357000D01*
X144969000Y-181357000D02*
X142969000Y-181357000D01*
X154659000Y-180972000D02*
X151286500Y-180972000D01*
X151286500Y-180972000D02*
X150921500Y-180607000D01*
X154659000Y-182242000D02*
X151536500Y-182242000D01*
X151536500Y-182242000D02*
X150921500Y-182857000D01*
D19*
X159169000Y-182857000D02*
X159131000Y-182857000D01*
X159131000Y-182857000D02*
X159169000Y-182857000D01*
X159169000Y-182857000D02*
X159131000Y-182857000D01*
X159131000Y-186118500D02*
X159131000Y-182857000D01*
X159131000Y-182857000D02*
X159131000Y-181695000D01*
X159854000Y-180972000D02*
X162279000Y-180972000D01*
X159131000Y-181695000D02*
X159854000Y-180972000D01*
D21*
X162900000Y-186200000D02*
X162900000Y-186250000D01*
X162900000Y-186250000D02*
X162900000Y-186200000D01*
X162900000Y-186200000D02*
X162900000Y-186250000D01*
D19*
X164047500Y-186250000D02*
X162900000Y-186250000D01*
X162900000Y-186250000D02*
X161564500Y-186250000D01*
X161564500Y-186250000D02*
X161469000Y-186154500D01*
X163121500Y-177657000D02*
X164469000Y-177657000D01*
X164469000Y-177657000D02*
X165316500Y-177657000D01*
X165316500Y-177657000D02*
X165766500Y-178107000D01*
D21*
X165766500Y-178107000D02*
X165719000Y-178107000D01*
D19*
X169500000Y-177500000D02*
X167778500Y-177500000D01*
X167778500Y-177500000D02*
X167671500Y-177607000D01*
X165952500Y-186250000D02*
X166826000Y-186250000D01*
X166826000Y-186250000D02*
X167969000Y-185107000D01*
X167202500Y-183500000D02*
X169112000Y-183500000D01*
X169112000Y-183500000D02*
X169469000Y-183857000D01*
X167202500Y-181250000D02*
X169076000Y-181250000D01*
X169076000Y-181250000D02*
X169469000Y-180857000D01*
X162279000Y-183512000D02*
X162291000Y-183500000D01*
X162291000Y-183500000D02*
X165297500Y-183500000D01*
X162279000Y-182242000D02*
X164305500Y-182242000D01*
X164305500Y-182242000D02*
X165297500Y-181250000D01*
D21*
X154559000Y-188023500D02*
X148185500Y-188023500D01*
X142669000Y-188207000D02*
X144669000Y-186207000D01*
X144669000Y-186207000D02*
X146369000Y-186207000D01*
X140869000Y-188207000D02*
X142669000Y-188207000D01*
X148185500Y-188023500D02*
X146369000Y-186207000D01*
D19*
X156845000Y-188023500D02*
X154559000Y-188023500D01*
D20*
X140869000Y-176507000D02*
X140819000Y-176507000D01*
X140819000Y-176507000D02*
X138969000Y-178357000D01*
X138969000Y-178357000D02*
X138969000Y-186107000D01*
X138969000Y-186107000D02*
X138969000Y-186307000D01*
X138969000Y-186307000D02*
X140869000Y-188207000D01*
M02*
