G04 #@! TF.FileFunction,Soldermask,Bot*
%FSLAX46Y46*%
G04 Gerber Fmt 4.6, Leading zero omitted, Abs format (unit mm)*
G04 Created by KiCad (PCBNEW 0.201510311201+6287~30~ubuntu14.04.1-product) date dom 03 abr 2016 23:42:29 CEST*
%MOMM*%
G01*
G04 APERTURE LIST*
%ADD10C,0.020000*%
G04 APERTURE END LIST*
D10*
G36*
X141831290Y-187582032D02*
X141831296Y-187582033D01*
X141835347Y-187582061D01*
X141956566Y-187595658D01*
X142072835Y-187632540D01*
X142179725Y-187691304D01*
X142273166Y-187769710D01*
X142349599Y-187864773D01*
X142406111Y-187972871D01*
X142440551Y-188089887D01*
X142440557Y-188089953D01*
X142440564Y-188089977D01*
X142451610Y-188211358D01*
X142438870Y-188332577D01*
X142438864Y-188332596D01*
X142438856Y-188332674D01*
X142402785Y-188449197D01*
X142344769Y-188556496D01*
X142267017Y-188650482D01*
X142172491Y-188727576D01*
X142064790Y-188784841D01*
X141948017Y-188820097D01*
X141826621Y-188832000D01*
X139911311Y-188832000D01*
X139906710Y-188831968D01*
X139906704Y-188831967D01*
X139902653Y-188831939D01*
X139781434Y-188818342D01*
X139665165Y-188781460D01*
X139558275Y-188722696D01*
X139464834Y-188644290D01*
X139388401Y-188549227D01*
X139331889Y-188441129D01*
X139297449Y-188324113D01*
X139297443Y-188324047D01*
X139297436Y-188324023D01*
X139286390Y-188202642D01*
X139299130Y-188081423D01*
X139299136Y-188081404D01*
X139299144Y-188081326D01*
X139335215Y-187964803D01*
X139393231Y-187857504D01*
X139470983Y-187763518D01*
X139565509Y-187686424D01*
X139673210Y-187629159D01*
X139789983Y-187593903D01*
X139911379Y-187582000D01*
X141826689Y-187582000D01*
X141831290Y-187582032D01*
X141831290Y-187582032D01*
G37*
G36*
X145550402Y-186982513D02*
X145699288Y-187013074D01*
X145839394Y-187071969D01*
X145965396Y-187156959D01*
X146072494Y-187264806D01*
X146156598Y-187391395D01*
X146214517Y-187531915D01*
X146243901Y-187680318D01*
X146243901Y-187680339D01*
X146244033Y-187681007D01*
X146241609Y-187854603D01*
X146241458Y-187855266D01*
X146241458Y-187855290D01*
X146207941Y-188002813D01*
X146146124Y-188141658D01*
X146058512Y-188265856D01*
X145948451Y-188370665D01*
X145820123Y-188452105D01*
X145678421Y-188507067D01*
X145528744Y-188533460D01*
X145376792Y-188530276D01*
X145228351Y-188497639D01*
X145089080Y-188436794D01*
X144964273Y-188350050D01*
X144858696Y-188240722D01*
X144776364Y-188112967D01*
X144720412Y-187971651D01*
X144692977Y-187822163D01*
X144695098Y-187670195D01*
X144726698Y-187521529D01*
X144786573Y-187381830D01*
X144872440Y-187256425D01*
X144981028Y-187150089D01*
X145108208Y-187066864D01*
X145249121Y-187009932D01*
X145398419Y-186981451D01*
X145550402Y-186982513D01*
X145550402Y-186982513D01*
G37*
G36*
X170294641Y-186225280D02*
X170376288Y-186242039D01*
X170453120Y-186274336D01*
X170522220Y-186320945D01*
X170580947Y-186380084D01*
X170627070Y-186449505D01*
X170658833Y-186526566D01*
X170674885Y-186607637D01*
X170674885Y-186607654D01*
X170675018Y-186608327D01*
X170673689Y-186703524D01*
X170673537Y-186704192D01*
X170673537Y-186704211D01*
X170655228Y-186784798D01*
X170621325Y-186860944D01*
X170573281Y-186929052D01*
X170512926Y-186986527D01*
X170442548Y-187031191D01*
X170364848Y-187061328D01*
X170282763Y-187075802D01*
X170199434Y-187074056D01*
X170118031Y-187056158D01*
X170041655Y-187022790D01*
X169973215Y-186975224D01*
X169915316Y-186915268D01*
X169870165Y-186845207D01*
X169839483Y-186767713D01*
X169824437Y-186685735D01*
X169825601Y-186602399D01*
X169842930Y-186520871D01*
X169875765Y-186444260D01*
X169922852Y-186375492D01*
X169982402Y-186317176D01*
X170052144Y-186271538D01*
X170129423Y-186240316D01*
X170211295Y-186224697D01*
X170294641Y-186225280D01*
X170294641Y-186225280D01*
G37*
G36*
X162757196Y-186059278D02*
X161944024Y-186872450D01*
X160883364Y-185811790D01*
X161696536Y-184998618D01*
X162757196Y-186059278D01*
X162757196Y-186059278D01*
G37*
G36*
X143055653Y-185032546D02*
X143214144Y-185065079D01*
X143363290Y-185127774D01*
X143497424Y-185218248D01*
X143611424Y-185333047D01*
X143700960Y-185467809D01*
X143762615Y-185617397D01*
X143793903Y-185775412D01*
X143793903Y-185775432D01*
X143794036Y-185776105D01*
X143791455Y-185960900D01*
X143791304Y-185961563D01*
X143791304Y-185961587D01*
X143755614Y-186118671D01*
X143689809Y-186266475D01*
X143596545Y-186398685D01*
X143479383Y-186510256D01*
X143342772Y-186596952D01*
X143191938Y-186655457D01*
X143032597Y-186683554D01*
X142870843Y-186680165D01*
X142712826Y-186645422D01*
X142564566Y-186580649D01*
X142431712Y-186488314D01*
X142319322Y-186371930D01*
X142231678Y-186235933D01*
X142172116Y-186085499D01*
X142142911Y-185926369D01*
X142145170Y-185764595D01*
X142178809Y-185606332D01*
X142242543Y-185457631D01*
X142333954Y-185324129D01*
X142449548Y-185210931D01*
X142584929Y-185122340D01*
X142734935Y-185061733D01*
X142893865Y-185031415D01*
X143055653Y-185032546D01*
X143055653Y-185032546D01*
G37*
G36*
X158956497Y-185263783D02*
X157577639Y-186642641D01*
X156057359Y-185122361D01*
X157436217Y-183743503D01*
X158956497Y-185263783D01*
X158956497Y-185263783D01*
G37*
G36*
X163764823Y-185051651D02*
X162951651Y-185864823D01*
X161890991Y-184804163D01*
X162704163Y-183990991D01*
X163764823Y-185051651D01*
X163764823Y-185051651D01*
G37*
G36*
X140939899Y-183982446D02*
X141069573Y-184009064D01*
X141191601Y-184060360D01*
X141301345Y-184134383D01*
X141394624Y-184228315D01*
X141467877Y-184338571D01*
X141518321Y-184460955D01*
X141543896Y-184590123D01*
X141543896Y-184590140D01*
X141544029Y-184590813D01*
X141541918Y-184742009D01*
X141541766Y-184742677D01*
X141541766Y-184742696D01*
X141512594Y-184871098D01*
X141458754Y-184992023D01*
X141382446Y-185100197D01*
X141286586Y-185191483D01*
X141174815Y-185262416D01*
X141051402Y-185310284D01*
X140921035Y-185333272D01*
X140788690Y-185330499D01*
X140659402Y-185302073D01*
X140538102Y-185249079D01*
X140429399Y-185173528D01*
X140337445Y-185078307D01*
X140265736Y-184967036D01*
X140217003Y-184843954D01*
X140193108Y-184713756D01*
X140194956Y-184581397D01*
X140222479Y-184451912D01*
X140274628Y-184330238D01*
X140349415Y-184221015D01*
X140443993Y-184128398D01*
X140554758Y-184055915D01*
X140677494Y-184006326D01*
X140807526Y-183981521D01*
X140939899Y-183982446D01*
X140939899Y-183982446D01*
G37*
G36*
X167924480Y-185073780D02*
X166976920Y-185073780D01*
X166976920Y-184126220D01*
X167924480Y-184126220D01*
X167924480Y-185073780D01*
X167924480Y-185073780D01*
G37*
G36*
X169423080Y-185073780D02*
X168475520Y-185073780D01*
X168475520Y-184126220D01*
X169423080Y-184126220D01*
X169423080Y-185073780D01*
X169423080Y-185073780D01*
G37*
G36*
X164772450Y-184044024D02*
X163959278Y-184857196D01*
X162898618Y-183796536D01*
X163711790Y-182983364D01*
X164772450Y-184044024D01*
X164772450Y-184044024D01*
G37*
G36*
X143055653Y-182532546D02*
X143214144Y-182565079D01*
X143363290Y-182627774D01*
X143497424Y-182718248D01*
X143611424Y-182833047D01*
X143700960Y-182967809D01*
X143762615Y-183117397D01*
X143793903Y-183275412D01*
X143793903Y-183275432D01*
X143794036Y-183276105D01*
X143791455Y-183460900D01*
X143791304Y-183461563D01*
X143791304Y-183461587D01*
X143755614Y-183618671D01*
X143689809Y-183766475D01*
X143596545Y-183898685D01*
X143479383Y-184010256D01*
X143342772Y-184096952D01*
X143191938Y-184155457D01*
X143032597Y-184183554D01*
X142870843Y-184180165D01*
X142712826Y-184145422D01*
X142564566Y-184080649D01*
X142431712Y-183988314D01*
X142319322Y-183871930D01*
X142231678Y-183735933D01*
X142172116Y-183585499D01*
X142142911Y-183426369D01*
X142145170Y-183264595D01*
X142178809Y-183106332D01*
X142242543Y-182957631D01*
X142333954Y-182824129D01*
X142449548Y-182710931D01*
X142584929Y-182622340D01*
X142734935Y-182561733D01*
X142893865Y-182531415D01*
X143055653Y-182532546D01*
X143055653Y-182532546D01*
G37*
G36*
X166194641Y-182125280D02*
X166276288Y-182142039D01*
X166353120Y-182174336D01*
X166422220Y-182220945D01*
X166480947Y-182280084D01*
X166527070Y-182349505D01*
X166558833Y-182426566D01*
X166574885Y-182507637D01*
X166574885Y-182507654D01*
X166575018Y-182508327D01*
X166573689Y-182603524D01*
X166573537Y-182604192D01*
X166573537Y-182604211D01*
X166555228Y-182684798D01*
X166521325Y-182760944D01*
X166473281Y-182829052D01*
X166412926Y-182886527D01*
X166342548Y-182931191D01*
X166264848Y-182961328D01*
X166182763Y-182975802D01*
X166099434Y-182974056D01*
X166018031Y-182956158D01*
X165941655Y-182922790D01*
X165873215Y-182875224D01*
X165815316Y-182815268D01*
X165770165Y-182745207D01*
X165739483Y-182667713D01*
X165724437Y-182585735D01*
X165725601Y-182502399D01*
X165742930Y-182420871D01*
X165775765Y-182344260D01*
X165822852Y-182275492D01*
X165882402Y-182217176D01*
X165952144Y-182171538D01*
X166029423Y-182140316D01*
X166111295Y-182124697D01*
X166194641Y-182125280D01*
X166194641Y-182125280D01*
G37*
G36*
X143055653Y-180532546D02*
X143214144Y-180565079D01*
X143363290Y-180627774D01*
X143497424Y-180718248D01*
X143611424Y-180833047D01*
X143700960Y-180967809D01*
X143762615Y-181117397D01*
X143793903Y-181275412D01*
X143793903Y-181275432D01*
X143794036Y-181276105D01*
X143791455Y-181460900D01*
X143791304Y-181461563D01*
X143791304Y-181461587D01*
X143755614Y-181618671D01*
X143689809Y-181766475D01*
X143596545Y-181898685D01*
X143479383Y-182010256D01*
X143342772Y-182096952D01*
X143191938Y-182155457D01*
X143032597Y-182183554D01*
X142870843Y-182180165D01*
X142712826Y-182145422D01*
X142564566Y-182080649D01*
X142431712Y-181988314D01*
X142319322Y-181871930D01*
X142231678Y-181735933D01*
X142172116Y-181585499D01*
X142142911Y-181426369D01*
X142145170Y-181264595D01*
X142178809Y-181106332D01*
X142242543Y-180957631D01*
X142333954Y-180824129D01*
X142449548Y-180710931D01*
X142584929Y-180622340D01*
X142734935Y-180561733D01*
X142893865Y-180531415D01*
X143055653Y-180532546D01*
X143055653Y-180532546D01*
G37*
G36*
X170294641Y-181225280D02*
X170376288Y-181242039D01*
X170453120Y-181274336D01*
X170522220Y-181320945D01*
X170580947Y-181380084D01*
X170627070Y-181449505D01*
X170658833Y-181526566D01*
X170674885Y-181607637D01*
X170674885Y-181607654D01*
X170675018Y-181608327D01*
X170673689Y-181703524D01*
X170673537Y-181704192D01*
X170673537Y-181704211D01*
X170655228Y-181784798D01*
X170621325Y-181860944D01*
X170573281Y-181929052D01*
X170512926Y-181986527D01*
X170442548Y-182031191D01*
X170364848Y-182061328D01*
X170282763Y-182075802D01*
X170199434Y-182074056D01*
X170118031Y-182056158D01*
X170041655Y-182022790D01*
X169973215Y-181975224D01*
X169915316Y-181915268D01*
X169870165Y-181845207D01*
X169839483Y-181767713D01*
X169824437Y-181685735D01*
X169825601Y-181602399D01*
X169842930Y-181520871D01*
X169875765Y-181444260D01*
X169922852Y-181375492D01*
X169982402Y-181317176D01*
X170052144Y-181271538D01*
X170129423Y-181240316D01*
X170211295Y-181224697D01*
X170294641Y-181225280D01*
X170294641Y-181225280D01*
G37*
G36*
X157701382Y-181003464D02*
X156888210Y-181816636D01*
X155827550Y-180755976D01*
X156640722Y-179942804D01*
X157701382Y-181003464D01*
X157701382Y-181003464D01*
G37*
G36*
X164542641Y-179677639D02*
X163163783Y-181056497D01*
X161643503Y-179536217D01*
X163022361Y-178157359D01*
X164542641Y-179677639D01*
X164542641Y-179677639D01*
G37*
G36*
X158709009Y-179995837D02*
X157895837Y-180809009D01*
X156835177Y-179748349D01*
X157648349Y-178935177D01*
X158709009Y-179995837D01*
X158709009Y-179995837D01*
G37*
G36*
X140939899Y-179382446D02*
X141069573Y-179409064D01*
X141191601Y-179460360D01*
X141301345Y-179534383D01*
X141394624Y-179628315D01*
X141467877Y-179738571D01*
X141518321Y-179860955D01*
X141543896Y-179990123D01*
X141543896Y-179990140D01*
X141544029Y-179990813D01*
X141541918Y-180142009D01*
X141541766Y-180142677D01*
X141541766Y-180142696D01*
X141512594Y-180271098D01*
X141458754Y-180392023D01*
X141382446Y-180500197D01*
X141286586Y-180591483D01*
X141174815Y-180662416D01*
X141051402Y-180710284D01*
X140921035Y-180733272D01*
X140788690Y-180730499D01*
X140659402Y-180702073D01*
X140538102Y-180649079D01*
X140429399Y-180573528D01*
X140337445Y-180478307D01*
X140265736Y-180367036D01*
X140217003Y-180243954D01*
X140193108Y-180113756D01*
X140194956Y-179981397D01*
X140222479Y-179851912D01*
X140274628Y-179730238D01*
X140349415Y-179621015D01*
X140443993Y-179528398D01*
X140554758Y-179455915D01*
X140677494Y-179406326D01*
X140807526Y-179381521D01*
X140939899Y-179382446D01*
X140939899Y-179382446D01*
G37*
G36*
X167924480Y-180073780D02*
X166976920Y-180073780D01*
X166976920Y-179126220D01*
X167924480Y-179126220D01*
X167924480Y-180073780D01*
X167924480Y-180073780D01*
G37*
G36*
X169423080Y-180073780D02*
X168475520Y-180073780D01*
X168475520Y-179126220D01*
X169423080Y-179126220D01*
X169423080Y-180073780D01*
X169423080Y-180073780D01*
G37*
G36*
X159716636Y-178988210D02*
X158903464Y-179801382D01*
X157842804Y-178740722D01*
X158655976Y-177927550D01*
X159716636Y-178988210D01*
X159716636Y-178988210D01*
G37*
G36*
X143055653Y-178032546D02*
X143214144Y-178065079D01*
X143363290Y-178127774D01*
X143497424Y-178218248D01*
X143611424Y-178333047D01*
X143700960Y-178467809D01*
X143762615Y-178617397D01*
X143793903Y-178775412D01*
X143793903Y-178775432D01*
X143794036Y-178776105D01*
X143791455Y-178960900D01*
X143791304Y-178961563D01*
X143791304Y-178961587D01*
X143755614Y-179118671D01*
X143689809Y-179266475D01*
X143596545Y-179398685D01*
X143479383Y-179510256D01*
X143342772Y-179596952D01*
X143191938Y-179655457D01*
X143032597Y-179683554D01*
X142870843Y-179680165D01*
X142712826Y-179645422D01*
X142564566Y-179580649D01*
X142431712Y-179488314D01*
X142319322Y-179371930D01*
X142231678Y-179235933D01*
X142172116Y-179085499D01*
X142142911Y-178926369D01*
X142145170Y-178764595D01*
X142178809Y-178606332D01*
X142242543Y-178457631D01*
X142333954Y-178324129D01*
X142449548Y-178210931D01*
X142584929Y-178122340D01*
X142734935Y-178061733D01*
X142893865Y-178031415D01*
X143055653Y-178032546D01*
X143055653Y-178032546D01*
G37*
G36*
X166194641Y-177125280D02*
X166276288Y-177142039D01*
X166353120Y-177174336D01*
X166422220Y-177220945D01*
X166480947Y-177280084D01*
X166527070Y-177349505D01*
X166558833Y-177426566D01*
X166574885Y-177507637D01*
X166574885Y-177507654D01*
X166575018Y-177508327D01*
X166573689Y-177603524D01*
X166573537Y-177604192D01*
X166573537Y-177604211D01*
X166555228Y-177684798D01*
X166521325Y-177760944D01*
X166473281Y-177829052D01*
X166412926Y-177886527D01*
X166342548Y-177931191D01*
X166264848Y-177961328D01*
X166182763Y-177975802D01*
X166099434Y-177974056D01*
X166018031Y-177956158D01*
X165941655Y-177922790D01*
X165873215Y-177875224D01*
X165815316Y-177815268D01*
X165770165Y-177745207D01*
X165739483Y-177667713D01*
X165724437Y-177585735D01*
X165725601Y-177502399D01*
X165742930Y-177420871D01*
X165775765Y-177344260D01*
X165822852Y-177275492D01*
X165882402Y-177217176D01*
X165952144Y-177171538D01*
X166029423Y-177140316D01*
X166111295Y-177124697D01*
X166194641Y-177125280D01*
X166194641Y-177125280D01*
G37*
G36*
X145550402Y-176182513D02*
X145699288Y-176213074D01*
X145839394Y-176271969D01*
X145965396Y-176356959D01*
X146072494Y-176464806D01*
X146156598Y-176591395D01*
X146214517Y-176731915D01*
X146243901Y-176880318D01*
X146243901Y-176880339D01*
X146244033Y-176881007D01*
X146241609Y-177054603D01*
X146241458Y-177055266D01*
X146241458Y-177055290D01*
X146207941Y-177202813D01*
X146146124Y-177341658D01*
X146058512Y-177465856D01*
X145948451Y-177570665D01*
X145820123Y-177652105D01*
X145678421Y-177707067D01*
X145528744Y-177733460D01*
X145376792Y-177730276D01*
X145228351Y-177697639D01*
X145089080Y-177636794D01*
X144964273Y-177550050D01*
X144858696Y-177440722D01*
X144776364Y-177312967D01*
X144720412Y-177171651D01*
X144692977Y-177022163D01*
X144695098Y-176870195D01*
X144726698Y-176721529D01*
X144786573Y-176581830D01*
X144872440Y-176456425D01*
X144981028Y-176350089D01*
X145108208Y-176266864D01*
X145249121Y-176209932D01*
X145398419Y-176181451D01*
X145550402Y-176182513D01*
X145550402Y-176182513D01*
G37*
G36*
X141831290Y-175882032D02*
X141831296Y-175882033D01*
X141835347Y-175882061D01*
X141956566Y-175895658D01*
X142072835Y-175932540D01*
X142179725Y-175991304D01*
X142273166Y-176069710D01*
X142349599Y-176164773D01*
X142406111Y-176272871D01*
X142440551Y-176389887D01*
X142440557Y-176389953D01*
X142440564Y-176389977D01*
X142451610Y-176511358D01*
X142438870Y-176632577D01*
X142438864Y-176632596D01*
X142438856Y-176632674D01*
X142402785Y-176749197D01*
X142344769Y-176856496D01*
X142267017Y-176950482D01*
X142172491Y-177027576D01*
X142064790Y-177084841D01*
X141948017Y-177120097D01*
X141826621Y-177132000D01*
X139911311Y-177132000D01*
X139906710Y-177131968D01*
X139906704Y-177131967D01*
X139902653Y-177131939D01*
X139781434Y-177118342D01*
X139665165Y-177081460D01*
X139558275Y-177022696D01*
X139464834Y-176944290D01*
X139388401Y-176849227D01*
X139331889Y-176741129D01*
X139297449Y-176624113D01*
X139297443Y-176624047D01*
X139297436Y-176624023D01*
X139286390Y-176502642D01*
X139299130Y-176381423D01*
X139299136Y-176381404D01*
X139299144Y-176381326D01*
X139335215Y-176264803D01*
X139393231Y-176157504D01*
X139470983Y-176063518D01*
X139565509Y-175986424D01*
X139673210Y-175929159D01*
X139789983Y-175893903D01*
X139911379Y-175882000D01*
X141826689Y-175882000D01*
X141831290Y-175882032D01*
X141831290Y-175882032D01*
G37*
M02*
