G04 #@! TF.FileFunction,Copper,L2,Bot,Signal*
%FSLAX46Y46*%
G04 Gerber Fmt 4.6, Leading zero omitted, Abs format (unit mm)*
G04 Created by KiCad (PCBNEW 0.201411101246+5259~19~ubuntu14.04.1-product) date mar 18 nov 2014 21:31:49 CET*
%MOMM*%
G01*
G04 APERTURE LIST*
%ADD10C,0.020000*%
%ADD11R,7.410000X1.000000*%
%ADD12R,6.410000X1.000000*%
%ADD13C,2.000000*%
%ADD14C,0.900000*%
%ADD15C,0.635000*%
%ADD16C,0.254000*%
%ADD17C,0.381000*%
G04 APERTURE END LIST*
D10*
D11*
X140962000Y-178364000D03*
D12*
X141462000Y-180864000D03*
X141462000Y-182864000D03*
D11*
X140962000Y-185364000D03*
D13*
X163620600Y-181889400D03*
X153320600Y-181889400D03*
X153320600Y-185139400D03*
X163620600Y-185139400D03*
X153320600Y-178639400D03*
X163620600Y-178639400D03*
D14*
X151503000Y-176728000D03*
X159370000Y-179960000D03*
X148455000Y-187015000D03*
X161261120Y-178980459D03*
X157570000Y-183880000D03*
X166175000Y-186385000D03*
X146050000Y-182880000D03*
X146050000Y-180975000D03*
X156025000Y-178991278D03*
X156325000Y-184826510D03*
D15*
X145994000Y-178364000D02*
X146050000Y-178308000D01*
X140962000Y-178364000D02*
X145994000Y-178364000D01*
X151511000Y-183896000D02*
X151511000Y-176784000D01*
X152754400Y-185139400D02*
X151511000Y-183896000D01*
X153320600Y-185139400D02*
X152754400Y-185139400D01*
X151503000Y-176728000D02*
X151503000Y-176776000D01*
X151503000Y-176776000D02*
X151511000Y-176784000D01*
X147630000Y-176728000D02*
X145994000Y-178364000D01*
X151503000Y-176728000D02*
X147630000Y-176728000D01*
X151503000Y-176728000D02*
X157132085Y-176728000D01*
X159370000Y-179960000D02*
X159370000Y-177220000D01*
X158878000Y-176728000D02*
X157132085Y-176728000D01*
X159370000Y-177220000D02*
X158878000Y-176728000D01*
D16*
X141145000Y-185547000D02*
X140962000Y-185364000D01*
D15*
X140962000Y-185364000D02*
X146804000Y-185364000D01*
X148455000Y-187015000D02*
X146804000Y-185364000D01*
D16*
X141478000Y-182880000D02*
X141462000Y-182864000D01*
X146050000Y-182880000D02*
X141478000Y-182880000D01*
D15*
X146034000Y-182864000D02*
X146050000Y-182880000D01*
X141462000Y-182864000D02*
X146034000Y-182864000D01*
D16*
X141573000Y-180975000D02*
X141462000Y-180864000D01*
X146050000Y-180975000D02*
X141573000Y-180975000D01*
D15*
X145939000Y-180864000D02*
X146050000Y-180975000D01*
X141462000Y-180864000D02*
X145939000Y-180864000D01*
D16*
X153644600Y-181889400D02*
X153320600Y-181889400D01*
D17*
X153387890Y-181889400D02*
X153320600Y-181889400D01*
X153320600Y-181695678D02*
X153320600Y-181889400D01*
X156025000Y-178991278D02*
X153320600Y-181695678D01*
X156325000Y-184826510D02*
X153387890Y-181889400D01*
D16*
G36*
X167310800Y-186868351D02*
X166919042Y-187260800D01*
X165204868Y-187260800D01*
X165204868Y-184984061D01*
X165204868Y-181734061D01*
X165204868Y-178484061D01*
X165144523Y-178179300D01*
X165026133Y-177892065D01*
X164854207Y-177633295D01*
X164635293Y-177412847D01*
X164377730Y-177239118D01*
X164091327Y-177118726D01*
X163786995Y-177056255D01*
X163476325Y-177054086D01*
X163171151Y-177112302D01*
X162883095Y-177228684D01*
X162623131Y-177398799D01*
X162401161Y-177616169D01*
X162225638Y-177872513D01*
X162103249Y-178158068D01*
X162038656Y-178461957D01*
X162034318Y-178772604D01*
X162090401Y-179078177D01*
X162204769Y-179367038D01*
X162373066Y-179628183D01*
X162588881Y-179851666D01*
X162843993Y-180028974D01*
X163128687Y-180153354D01*
X163432117Y-180220067D01*
X163742726Y-180226573D01*
X164048684Y-180172625D01*
X164338336Y-180060276D01*
X164600650Y-179893807D01*
X164825634Y-179679557D01*
X165004719Y-179425689D01*
X165131083Y-179141871D01*
X165199913Y-178838914D01*
X165204868Y-178484061D01*
X165204868Y-181734061D01*
X165144523Y-181429300D01*
X165026133Y-181142065D01*
X164854207Y-180883295D01*
X164635293Y-180662847D01*
X164377730Y-180489118D01*
X164091327Y-180368726D01*
X163786995Y-180306255D01*
X163476325Y-180304086D01*
X163171151Y-180362302D01*
X162883095Y-180478684D01*
X162623131Y-180648799D01*
X162401161Y-180866169D01*
X162225638Y-181122513D01*
X162103249Y-181408068D01*
X162038656Y-181711957D01*
X162034318Y-182022604D01*
X162090401Y-182328177D01*
X162204769Y-182617038D01*
X162373066Y-182878183D01*
X162588881Y-183101666D01*
X162843993Y-183278974D01*
X163128687Y-183403354D01*
X163432117Y-183470067D01*
X163742726Y-183476573D01*
X164048684Y-183422625D01*
X164338336Y-183310276D01*
X164600650Y-183143807D01*
X164825634Y-182929557D01*
X165004719Y-182675689D01*
X165131083Y-182391871D01*
X165199913Y-182088914D01*
X165204868Y-181734061D01*
X165204868Y-184984061D01*
X165144523Y-184679300D01*
X165026133Y-184392065D01*
X164854207Y-184133295D01*
X164635293Y-183912847D01*
X164377730Y-183739118D01*
X164091327Y-183618726D01*
X163786995Y-183556255D01*
X163476325Y-183554086D01*
X163171151Y-183612302D01*
X162883095Y-183728684D01*
X162623131Y-183898799D01*
X162401161Y-184116169D01*
X162225638Y-184372513D01*
X162103249Y-184658068D01*
X162038656Y-184961957D01*
X162034318Y-185272604D01*
X162090401Y-185578177D01*
X162204769Y-185867038D01*
X162373066Y-186128183D01*
X162588881Y-186351666D01*
X162843993Y-186528974D01*
X163128687Y-186653354D01*
X163432117Y-186720067D01*
X163742726Y-186726573D01*
X164048684Y-186672625D01*
X164338336Y-186560276D01*
X164600650Y-186393807D01*
X164825634Y-186179557D01*
X165004719Y-185925689D01*
X165131083Y-185641871D01*
X165199913Y-185338914D01*
X165204868Y-184984061D01*
X165204868Y-187260800D01*
X148833793Y-187260800D01*
X148082000Y-186510329D01*
X148082000Y-177629700D01*
X150609300Y-177629700D01*
X150609300Y-183896000D01*
X150617428Y-183978899D01*
X150624687Y-184061869D01*
X150626010Y-184066424D01*
X150626473Y-184071141D01*
X150650548Y-184150882D01*
X150673785Y-184230862D01*
X150675965Y-184235069D01*
X150677337Y-184239611D01*
X150716453Y-184313178D01*
X150754771Y-184387101D01*
X150757728Y-184390806D01*
X150759955Y-184394993D01*
X150812628Y-184459577D01*
X150864562Y-184524633D01*
X150871064Y-184531227D01*
X150871180Y-184531369D01*
X150871310Y-184531477D01*
X150873402Y-184533598D01*
X151761722Y-185421918D01*
X151790401Y-185578177D01*
X151904769Y-185867038D01*
X152073066Y-186128183D01*
X152288881Y-186351666D01*
X152543993Y-186528974D01*
X152828687Y-186653354D01*
X153132117Y-186720067D01*
X153442726Y-186726573D01*
X153748684Y-186672625D01*
X154038336Y-186560276D01*
X154300650Y-186393807D01*
X154525634Y-186179557D01*
X154704719Y-185925689D01*
X154831083Y-185641871D01*
X154899913Y-185338914D01*
X154904868Y-184984061D01*
X154844523Y-184679300D01*
X154726133Y-184392065D01*
X154589868Y-184186969D01*
X155289811Y-184886912D01*
X155289441Y-184913468D01*
X155326053Y-185112953D01*
X155400715Y-185301528D01*
X155510583Y-185472009D01*
X155651471Y-185617904D01*
X155818014Y-185733654D01*
X156003868Y-185814852D01*
X156201954Y-185858404D01*
X156404727Y-185862651D01*
X156604463Y-185827432D01*
X156793554Y-185754089D01*
X156964798Y-185645414D01*
X157111672Y-185505547D01*
X157228583Y-185339816D01*
X157311076Y-185154534D01*
X157356010Y-184956757D01*
X157359244Y-184725101D01*
X157319850Y-184526147D01*
X157242563Y-184338633D01*
X157130325Y-184169703D01*
X156987414Y-184025790D01*
X156819271Y-183912376D01*
X156632301Y-183833781D01*
X156433626Y-183792999D01*
X156386752Y-183792671D01*
X154859754Y-182265672D01*
X154899913Y-182088914D01*
X154904868Y-181734061D01*
X154844523Y-181429300D01*
X154797253Y-181314616D01*
X156084866Y-180027003D01*
X156104727Y-180027419D01*
X156304463Y-179992200D01*
X156493554Y-179918857D01*
X156664798Y-179810182D01*
X156811672Y-179670315D01*
X156928583Y-179504584D01*
X157011076Y-179319302D01*
X157056010Y-179121525D01*
X157059244Y-178889869D01*
X157019850Y-178690915D01*
X156942563Y-178503401D01*
X156830325Y-178334471D01*
X156687414Y-178190558D01*
X156519271Y-178077144D01*
X156332301Y-177998549D01*
X156133626Y-177957767D01*
X155930814Y-177956351D01*
X155731590Y-177994355D01*
X155543541Y-178070332D01*
X155373831Y-178181387D01*
X155228924Y-178323291D01*
X155114339Y-178490638D01*
X155034440Y-178677054D01*
X154992272Y-178875439D01*
X154991522Y-178929163D01*
X154846449Y-179074236D01*
X154899913Y-178838914D01*
X154904868Y-178484061D01*
X154844523Y-178179300D01*
X154726133Y-177892065D01*
X154554207Y-177633295D01*
X154550637Y-177629700D01*
X157132085Y-177629700D01*
X158468300Y-177629700D01*
X158468300Y-179446272D01*
X158459339Y-179459360D01*
X158379440Y-179645776D01*
X158337272Y-179844161D01*
X158334441Y-180046958D01*
X158371053Y-180246443D01*
X158445715Y-180435018D01*
X158555583Y-180605499D01*
X158696471Y-180751394D01*
X158863014Y-180867144D01*
X159048868Y-180948342D01*
X159246954Y-180991894D01*
X159449727Y-180996141D01*
X159649463Y-180960922D01*
X159838554Y-180887579D01*
X160009798Y-180778904D01*
X160156672Y-180639037D01*
X160273583Y-180473306D01*
X160356076Y-180288024D01*
X160401010Y-180090247D01*
X160404244Y-179858591D01*
X160364850Y-179659637D01*
X160287563Y-179472123D01*
X160271700Y-179448247D01*
X160271700Y-177220000D01*
X160263571Y-177137100D01*
X160256313Y-177054131D01*
X160254989Y-177049575D01*
X160254527Y-177044859D01*
X160230451Y-176965117D01*
X160207215Y-176885138D01*
X160205034Y-176880930D01*
X160203663Y-176876389D01*
X160164546Y-176802821D01*
X160126229Y-176728899D01*
X160123271Y-176725193D01*
X160121045Y-176721007D01*
X160068391Y-176656446D01*
X160016438Y-176591366D01*
X160009933Y-176584770D01*
X160009820Y-176584631D01*
X160009690Y-176584523D01*
X160007598Y-176582402D01*
X159864396Y-176439200D01*
X166958218Y-176439200D01*
X167310800Y-176791160D01*
X167310800Y-186868351D01*
X167310800Y-186868351D01*
G37*
X167310800Y-186868351D02*
X166919042Y-187260800D01*
X165204868Y-187260800D01*
X165204868Y-184984061D01*
X165204868Y-181734061D01*
X165204868Y-178484061D01*
X165144523Y-178179300D01*
X165026133Y-177892065D01*
X164854207Y-177633295D01*
X164635293Y-177412847D01*
X164377730Y-177239118D01*
X164091327Y-177118726D01*
X163786995Y-177056255D01*
X163476325Y-177054086D01*
X163171151Y-177112302D01*
X162883095Y-177228684D01*
X162623131Y-177398799D01*
X162401161Y-177616169D01*
X162225638Y-177872513D01*
X162103249Y-178158068D01*
X162038656Y-178461957D01*
X162034318Y-178772604D01*
X162090401Y-179078177D01*
X162204769Y-179367038D01*
X162373066Y-179628183D01*
X162588881Y-179851666D01*
X162843993Y-180028974D01*
X163128687Y-180153354D01*
X163432117Y-180220067D01*
X163742726Y-180226573D01*
X164048684Y-180172625D01*
X164338336Y-180060276D01*
X164600650Y-179893807D01*
X164825634Y-179679557D01*
X165004719Y-179425689D01*
X165131083Y-179141871D01*
X165199913Y-178838914D01*
X165204868Y-178484061D01*
X165204868Y-181734061D01*
X165144523Y-181429300D01*
X165026133Y-181142065D01*
X164854207Y-180883295D01*
X164635293Y-180662847D01*
X164377730Y-180489118D01*
X164091327Y-180368726D01*
X163786995Y-180306255D01*
X163476325Y-180304086D01*
X163171151Y-180362302D01*
X162883095Y-180478684D01*
X162623131Y-180648799D01*
X162401161Y-180866169D01*
X162225638Y-181122513D01*
X162103249Y-181408068D01*
X162038656Y-181711957D01*
X162034318Y-182022604D01*
X162090401Y-182328177D01*
X162204769Y-182617038D01*
X162373066Y-182878183D01*
X162588881Y-183101666D01*
X162843993Y-183278974D01*
X163128687Y-183403354D01*
X163432117Y-183470067D01*
X163742726Y-183476573D01*
X164048684Y-183422625D01*
X164338336Y-183310276D01*
X164600650Y-183143807D01*
X164825634Y-182929557D01*
X165004719Y-182675689D01*
X165131083Y-182391871D01*
X165199913Y-182088914D01*
X165204868Y-181734061D01*
X165204868Y-184984061D01*
X165144523Y-184679300D01*
X165026133Y-184392065D01*
X164854207Y-184133295D01*
X164635293Y-183912847D01*
X164377730Y-183739118D01*
X164091327Y-183618726D01*
X163786995Y-183556255D01*
X163476325Y-183554086D01*
X163171151Y-183612302D01*
X162883095Y-183728684D01*
X162623131Y-183898799D01*
X162401161Y-184116169D01*
X162225638Y-184372513D01*
X162103249Y-184658068D01*
X162038656Y-184961957D01*
X162034318Y-185272604D01*
X162090401Y-185578177D01*
X162204769Y-185867038D01*
X162373066Y-186128183D01*
X162588881Y-186351666D01*
X162843993Y-186528974D01*
X163128687Y-186653354D01*
X163432117Y-186720067D01*
X163742726Y-186726573D01*
X164048684Y-186672625D01*
X164338336Y-186560276D01*
X164600650Y-186393807D01*
X164825634Y-186179557D01*
X165004719Y-185925689D01*
X165131083Y-185641871D01*
X165199913Y-185338914D01*
X165204868Y-184984061D01*
X165204868Y-187260800D01*
X148833793Y-187260800D01*
X148082000Y-186510329D01*
X148082000Y-177629700D01*
X150609300Y-177629700D01*
X150609300Y-183896000D01*
X150617428Y-183978899D01*
X150624687Y-184061869D01*
X150626010Y-184066424D01*
X150626473Y-184071141D01*
X150650548Y-184150882D01*
X150673785Y-184230862D01*
X150675965Y-184235069D01*
X150677337Y-184239611D01*
X150716453Y-184313178D01*
X150754771Y-184387101D01*
X150757728Y-184390806D01*
X150759955Y-184394993D01*
X150812628Y-184459577D01*
X150864562Y-184524633D01*
X150871064Y-184531227D01*
X150871180Y-184531369D01*
X150871310Y-184531477D01*
X150873402Y-184533598D01*
X151761722Y-185421918D01*
X151790401Y-185578177D01*
X151904769Y-185867038D01*
X152073066Y-186128183D01*
X152288881Y-186351666D01*
X152543993Y-186528974D01*
X152828687Y-186653354D01*
X153132117Y-186720067D01*
X153442726Y-186726573D01*
X153748684Y-186672625D01*
X154038336Y-186560276D01*
X154300650Y-186393807D01*
X154525634Y-186179557D01*
X154704719Y-185925689D01*
X154831083Y-185641871D01*
X154899913Y-185338914D01*
X154904868Y-184984061D01*
X154844523Y-184679300D01*
X154726133Y-184392065D01*
X154589868Y-184186969D01*
X155289811Y-184886912D01*
X155289441Y-184913468D01*
X155326053Y-185112953D01*
X155400715Y-185301528D01*
X155510583Y-185472009D01*
X155651471Y-185617904D01*
X155818014Y-185733654D01*
X156003868Y-185814852D01*
X156201954Y-185858404D01*
X156404727Y-185862651D01*
X156604463Y-185827432D01*
X156793554Y-185754089D01*
X156964798Y-185645414D01*
X157111672Y-185505547D01*
X157228583Y-185339816D01*
X157311076Y-185154534D01*
X157356010Y-184956757D01*
X157359244Y-184725101D01*
X157319850Y-184526147D01*
X157242563Y-184338633D01*
X157130325Y-184169703D01*
X156987414Y-184025790D01*
X156819271Y-183912376D01*
X156632301Y-183833781D01*
X156433626Y-183792999D01*
X156386752Y-183792671D01*
X154859754Y-182265672D01*
X154899913Y-182088914D01*
X154904868Y-181734061D01*
X154844523Y-181429300D01*
X154797253Y-181314616D01*
X156084866Y-180027003D01*
X156104727Y-180027419D01*
X156304463Y-179992200D01*
X156493554Y-179918857D01*
X156664798Y-179810182D01*
X156811672Y-179670315D01*
X156928583Y-179504584D01*
X157011076Y-179319302D01*
X157056010Y-179121525D01*
X157059244Y-178889869D01*
X157019850Y-178690915D01*
X156942563Y-178503401D01*
X156830325Y-178334471D01*
X156687414Y-178190558D01*
X156519271Y-178077144D01*
X156332301Y-177998549D01*
X156133626Y-177957767D01*
X155930814Y-177956351D01*
X155731590Y-177994355D01*
X155543541Y-178070332D01*
X155373831Y-178181387D01*
X155228924Y-178323291D01*
X155114339Y-178490638D01*
X155034440Y-178677054D01*
X154992272Y-178875439D01*
X154991522Y-178929163D01*
X154846449Y-179074236D01*
X154899913Y-178838914D01*
X154904868Y-178484061D01*
X154844523Y-178179300D01*
X154726133Y-177892065D01*
X154554207Y-177633295D01*
X154550637Y-177629700D01*
X157132085Y-177629700D01*
X158468300Y-177629700D01*
X158468300Y-179446272D01*
X158459339Y-179459360D01*
X158379440Y-179645776D01*
X158337272Y-179844161D01*
X158334441Y-180046958D01*
X158371053Y-180246443D01*
X158445715Y-180435018D01*
X158555583Y-180605499D01*
X158696471Y-180751394D01*
X158863014Y-180867144D01*
X159048868Y-180948342D01*
X159246954Y-180991894D01*
X159449727Y-180996141D01*
X159649463Y-180960922D01*
X159838554Y-180887579D01*
X160009798Y-180778904D01*
X160156672Y-180639037D01*
X160273583Y-180473306D01*
X160356076Y-180288024D01*
X160401010Y-180090247D01*
X160404244Y-179858591D01*
X160364850Y-179659637D01*
X160287563Y-179472123D01*
X160271700Y-179448247D01*
X160271700Y-177220000D01*
X160263571Y-177137100D01*
X160256313Y-177054131D01*
X160254989Y-177049575D01*
X160254527Y-177044859D01*
X160230451Y-176965117D01*
X160207215Y-176885138D01*
X160205034Y-176880930D01*
X160203663Y-176876389D01*
X160164546Y-176802821D01*
X160126229Y-176728899D01*
X160123271Y-176725193D01*
X160121045Y-176721007D01*
X160068391Y-176656446D01*
X160016438Y-176591366D01*
X160009933Y-176584770D01*
X160009820Y-176584631D01*
X160009690Y-176584523D01*
X160007598Y-176582402D01*
X159864396Y-176439200D01*
X166958218Y-176439200D01*
X167310800Y-176791160D01*
X167310800Y-186868351D01*
M02*
