G04 #@! TF.FileFunction,Copper,L2,Bot,Signal*
%FSLAX46Y46*%
G04 Gerber Fmt 4.6, Leading zero omitted, Abs format (unit mm)*
G04 Created by KiCad (PCBNEW 4.0.1-3.201512221402+6198~38~ubuntu14.04.1-stable) date Tue 02 Feb 2016 05:40:22 PM CET*
%MOMM*%
G01*
G04 APERTURE LIST*
%ADD10C,0.020000*%
%ADD11C,1.500000*%
%ADD12O,3.000000X1.100000*%
%ADD13R,0.797560X0.797560*%
%ADD14C,0.900000*%
%ADD15C,0.508000*%
%ADD16C,0.381000*%
G04 APERTURE END LIST*
D10*
D11*
X142969000Y-178857000D03*
X142969000Y-181357000D03*
X142969000Y-183357000D03*
X142969000Y-185857000D03*
D12*
X140869000Y-176507000D03*
X140869000Y-188207000D03*
D10*
G36*
X160246639Y-186493575D02*
X158832425Y-185079361D01*
X160105217Y-183806569D01*
X161519431Y-185220783D01*
X160246639Y-186493575D01*
X160246639Y-186493575D01*
G37*
G36*
X165832783Y-180907431D02*
X164418569Y-179493217D01*
X165691361Y-178220425D01*
X167105575Y-179634639D01*
X165832783Y-180907431D01*
X165832783Y-180907431D01*
G37*
G36*
X164613024Y-186723384D02*
X163658430Y-185768790D01*
X164365536Y-185061684D01*
X165320130Y-186016278D01*
X164613024Y-186723384D01*
X164613024Y-186723384D01*
G37*
G36*
X159557210Y-181667570D02*
X158602616Y-180712976D01*
X159309722Y-180005870D01*
X160264316Y-180960464D01*
X159557210Y-181667570D01*
X159557210Y-181667570D01*
G37*
G36*
X165620651Y-185715757D02*
X164666057Y-184761163D01*
X165373163Y-184054057D01*
X166327757Y-185008651D01*
X165620651Y-185715757D01*
X165620651Y-185715757D01*
G37*
G36*
X160564837Y-180659943D02*
X159610243Y-179705349D01*
X160317349Y-178998243D01*
X161271943Y-179952837D01*
X160564837Y-180659943D01*
X160564837Y-180659943D01*
G37*
G36*
X166628278Y-184708130D02*
X165673684Y-183753536D01*
X166380790Y-183046430D01*
X167335384Y-184001024D01*
X166628278Y-184708130D01*
X166628278Y-184708130D01*
G37*
G36*
X161572464Y-179652316D02*
X160617870Y-178697722D01*
X161324976Y-177990616D01*
X162279570Y-178945210D01*
X161572464Y-179652316D01*
X161572464Y-179652316D01*
G37*
D13*
X169469700Y-185107000D03*
X170968300Y-185107000D03*
X169469700Y-179607000D03*
X170968300Y-179607000D03*
D14*
X158500000Y-179250000D03*
X169250000Y-187000000D03*
X159169000Y-182857000D03*
X162900000Y-186200000D03*
X164469000Y-177657000D03*
X169500000Y-177500000D03*
X167969000Y-185107000D03*
X169469000Y-183857000D03*
X169469000Y-180857000D03*
D15*
X159433466Y-180836720D02*
X158500000Y-179903254D01*
X158500000Y-179903254D02*
X158500000Y-179250000D01*
X170968300Y-185107000D02*
X170968300Y-179607000D01*
X169250000Y-187000000D02*
X170968300Y-185281700D01*
D16*
X170968300Y-185281700D02*
X170968300Y-185107000D01*
X165496907Y-184884907D02*
X163469000Y-182857000D01*
X163469000Y-182857000D02*
X159169000Y-182857000D01*
X162900000Y-186200000D02*
X164181814Y-186200000D01*
X164181814Y-186200000D02*
X164489280Y-185892534D01*
X164469000Y-177657000D02*
X162613186Y-177657000D01*
X162613186Y-177657000D02*
X161448720Y-178821466D01*
X166504534Y-183877280D02*
X168000000Y-182381814D01*
X168000000Y-179000000D02*
X169500000Y-177500000D01*
X168000000Y-182381814D02*
X168000000Y-179000000D01*
X166504534Y-183877280D02*
X166739280Y-183877280D01*
X166739280Y-183877280D02*
X167969000Y-185107000D01*
X169469700Y-183857700D02*
X169469700Y-185107000D01*
X169469000Y-183857000D02*
X169469700Y-183857700D01*
X169469700Y-179607000D02*
X169469000Y-179607700D01*
X169469000Y-179607700D02*
X169469000Y-180857000D01*
M02*
