G04 #@! TF.FileFunction,Legend,Bot*
%FSLAX46Y46*%
G04 Gerber Fmt 4.6, Leading zero omitted, Abs format (unit mm)*
G04 Created by KiCad (PCBNEW 0.201510311201+6287~30~ubuntu14.04.1-product) date dom 03 abr 2016 23:42:29 CEST*
%MOMM*%
G01*
G04 APERTURE LIST*
%ADD10C,0.020000*%
%ADD11C,0.150000*%
%ADD12C,0.002540*%
%ADD13C,0.130000*%
G04 APERTURE END LIST*
D10*
D11*
X161113173Y-186890128D02*
X161502082Y-186501219D01*
X164684062Y-183107107D02*
X164295153Y-183496016D01*
X155774517Y-181551472D02*
X156163425Y-181162563D01*
X159486827Y-186890128D02*
X158426167Y-185829468D01*
X161113173Y-186890128D02*
X159486827Y-186890128D01*
X155774517Y-181551472D02*
X155774517Y-183177817D01*
X155774517Y-183177817D02*
X156870532Y-184273833D01*
X159486827Y-177909872D02*
X159097918Y-178298781D01*
X161113173Y-177909872D02*
X162173833Y-178970532D01*
X159486827Y-177909872D02*
X161113173Y-177909872D01*
X164684062Y-181480761D02*
X163729468Y-180526167D01*
X164684062Y-183107107D02*
X164684062Y-181480761D01*
D12*
G36*
X151934440Y-185572460D02*
X151931900Y-185559760D01*
X151916660Y-185524200D01*
X151896340Y-185470860D01*
X151868400Y-185399740D01*
X151832840Y-185315920D01*
X151792200Y-185219400D01*
X151746480Y-185112720D01*
X151713460Y-185036520D01*
X151667740Y-184927300D01*
X151624560Y-184823160D01*
X151583920Y-184729180D01*
X151550900Y-184647900D01*
X151525500Y-184581860D01*
X151505180Y-184533600D01*
X151495020Y-184505660D01*
X151492480Y-184498040D01*
X151502640Y-184480260D01*
X151522960Y-184442160D01*
X151550900Y-184388820D01*
X151586460Y-184322780D01*
X151627100Y-184249120D01*
X151670280Y-184170380D01*
X151713460Y-184091640D01*
X151756640Y-184012900D01*
X151797280Y-183939240D01*
X151832840Y-183875740D01*
X151863320Y-183822400D01*
X151886180Y-183784300D01*
X151896340Y-183766520D01*
X151898880Y-183763980D01*
X151903960Y-183774140D01*
X151911580Y-183807160D01*
X151919200Y-183855420D01*
X151929360Y-183913840D01*
X151929360Y-183918920D01*
X151939520Y-183982420D01*
X151949680Y-184035760D01*
X151957300Y-184073860D01*
X151962380Y-184094180D01*
X151972540Y-184086560D01*
X151997940Y-184063700D01*
X152036040Y-184025600D01*
X152086840Y-183974800D01*
X152145260Y-183911300D01*
X152211300Y-183842720D01*
X152279880Y-183766520D01*
X152353540Y-183687780D01*
X152427200Y-183606500D01*
X152495780Y-183527760D01*
X152564360Y-183454100D01*
X152622780Y-183385520D01*
X152676120Y-183324560D01*
X152719300Y-183273760D01*
X152747240Y-183235660D01*
X152754860Y-183225500D01*
X152780260Y-183192480D01*
X152813280Y-183141680D01*
X152856460Y-183078180D01*
X152902180Y-183012140D01*
X152935200Y-182966420D01*
X152991080Y-182885140D01*
X153054580Y-182791160D01*
X153118080Y-182697180D01*
X153176500Y-182610820D01*
X153191740Y-182587960D01*
X153321280Y-182400000D01*
X153026640Y-181970740D01*
X152952980Y-181864060D01*
X152892020Y-181772620D01*
X152838680Y-181696420D01*
X152790420Y-181630380D01*
X152744700Y-181571960D01*
X152701520Y-181513540D01*
X152653260Y-181455120D01*
X152599920Y-181394160D01*
X152536420Y-181323040D01*
X152460220Y-181239220D01*
X152371320Y-181140160D01*
X152366240Y-181135080D01*
X152287500Y-181048720D01*
X152213840Y-180964900D01*
X152147800Y-180891240D01*
X152091920Y-180827740D01*
X152046200Y-180774400D01*
X152013180Y-180738840D01*
X151992860Y-180715980D01*
X151992860Y-180713440D01*
X151982700Y-180700740D01*
X151972540Y-180703280D01*
X151964920Y-180723600D01*
X151954760Y-180761700D01*
X151942060Y-180820120D01*
X151931900Y-180886160D01*
X151903960Y-181058880D01*
X151695680Y-180680420D01*
X151489940Y-180301960D01*
X151718540Y-179766020D01*
X151766800Y-179654260D01*
X151809980Y-179550120D01*
X151850620Y-179456140D01*
X151883640Y-179374860D01*
X151911580Y-179308820D01*
X151931900Y-179260560D01*
X151944600Y-179232620D01*
X151947140Y-179225000D01*
X151934440Y-179227540D01*
X151898880Y-179237700D01*
X151843000Y-179252940D01*
X151769340Y-179270720D01*
X151680440Y-179296120D01*
X151578840Y-179324060D01*
X151467080Y-179352000D01*
X151390880Y-179374860D01*
X150837160Y-179524720D01*
X150438380Y-179694900D01*
X150339320Y-179738080D01*
X150245340Y-179778720D01*
X150156440Y-179814280D01*
X150082780Y-179844760D01*
X150024360Y-179870160D01*
X149983720Y-179885400D01*
X149971020Y-179890480D01*
X149915140Y-179910800D01*
X149884660Y-179933660D01*
X149874500Y-179959060D01*
X149877040Y-179976840D01*
X149879580Y-179997160D01*
X149879580Y-180040340D01*
X149882120Y-180103840D01*
X149884660Y-180182580D01*
X149887200Y-180276560D01*
X149889740Y-180380700D01*
X149892280Y-180492460D01*
X149892280Y-180495000D01*
X149892280Y-180609300D01*
X149894820Y-180718520D01*
X149897360Y-180817580D01*
X149902440Y-180903940D01*
X149904980Y-180975060D01*
X149907520Y-181028400D01*
X149912600Y-181056340D01*
X149920220Y-181107140D01*
X149927840Y-181155400D01*
X149930380Y-181175720D01*
X149935460Y-181213820D01*
X149945620Y-181264620D01*
X149950700Y-181300180D01*
X149958320Y-181350980D01*
X149965940Y-181399240D01*
X149971020Y-181424640D01*
X149976100Y-181465280D01*
X149983720Y-181516080D01*
X149991340Y-181551640D01*
X149998960Y-181599900D01*
X150006580Y-181645620D01*
X150009120Y-181668480D01*
X150021820Y-181762460D01*
X150037060Y-181838660D01*
X150042140Y-181861520D01*
X150049760Y-181897080D01*
X150059920Y-181947880D01*
X150070080Y-182001220D01*
X150077700Y-182049480D01*
X150085320Y-182082500D01*
X150087860Y-182097740D01*
X150090400Y-182097740D01*
X150092940Y-182097740D01*
X150098020Y-182092660D01*
X150108180Y-182079960D01*
X150123420Y-182062180D01*
X150148820Y-182036780D01*
X150181840Y-182001220D01*
X150225020Y-181955500D01*
X150280900Y-181894540D01*
X150349480Y-181820880D01*
X150433300Y-181729440D01*
X150534900Y-181620220D01*
X150550140Y-181602440D01*
X150639040Y-181508460D01*
X150710160Y-181429720D01*
X150766040Y-181368760D01*
X150814300Y-181323040D01*
X150847320Y-181290020D01*
X150875260Y-181267160D01*
X150893040Y-181254460D01*
X150905740Y-181249380D01*
X150910820Y-181249380D01*
X150941300Y-181249380D01*
X150992100Y-181254460D01*
X151053060Y-181259540D01*
X151121640Y-181264620D01*
X151185140Y-181269700D01*
X151241020Y-181272240D01*
X151246100Y-181274780D01*
X151294360Y-181277320D01*
X151355320Y-181282400D01*
X151411200Y-181287480D01*
X151467080Y-181290020D01*
X151517880Y-181295100D01*
X151555980Y-181297640D01*
X151555980Y-181297640D01*
X151589000Y-181302720D01*
X151639800Y-181305260D01*
X151700760Y-181310340D01*
X151731240Y-181312880D01*
X151784580Y-181317960D01*
X151827760Y-181323040D01*
X151855700Y-181325580D01*
X151860780Y-181328120D01*
X151858240Y-181343360D01*
X151850620Y-181376380D01*
X151843000Y-181422100D01*
X151840460Y-181429720D01*
X151830300Y-181485600D01*
X151820140Y-181544020D01*
X151812520Y-181582120D01*
X151804900Y-181620220D01*
X151799820Y-181645620D01*
X151799820Y-181648160D01*
X151797280Y-181665940D01*
X151792200Y-181698960D01*
X151787120Y-181737060D01*
X151779500Y-181785320D01*
X151769340Y-181820880D01*
X151761720Y-181838660D01*
X151749020Y-181848820D01*
X151713460Y-181871680D01*
X151660120Y-181902160D01*
X151594080Y-181937720D01*
X151517880Y-181980900D01*
X151434060Y-182029160D01*
X151342620Y-182077420D01*
X151251180Y-182128220D01*
X151162280Y-182176480D01*
X151075920Y-182222200D01*
X150997180Y-182265380D01*
X150928600Y-182300940D01*
X150875260Y-182328880D01*
X150837160Y-182346660D01*
X150829540Y-182349200D01*
X150778740Y-182374600D01*
X150753340Y-182392380D01*
X150750800Y-182407620D01*
X150773660Y-182425400D01*
X150814300Y-182448260D01*
X150834620Y-182458420D01*
X150877800Y-182481280D01*
X150936220Y-182511760D01*
X151004800Y-182549860D01*
X151086080Y-182593040D01*
X151174980Y-182638760D01*
X151263880Y-182687020D01*
X151357860Y-182737820D01*
X151446760Y-182786080D01*
X151530580Y-182831800D01*
X151606780Y-182872440D01*
X151670280Y-182908000D01*
X151721080Y-182935940D01*
X151754100Y-182953720D01*
X151764260Y-182958800D01*
X151769340Y-182974040D01*
X151774420Y-183007060D01*
X151782040Y-183055320D01*
X151787120Y-183093420D01*
X151799820Y-183169620D01*
X151815060Y-183255980D01*
X151827760Y-183334720D01*
X151832840Y-183352500D01*
X151855700Y-183479500D01*
X151827760Y-183482040D01*
X151761720Y-183487120D01*
X151685520Y-183494740D01*
X151609320Y-183499820D01*
X151538200Y-183504900D01*
X151484860Y-183509980D01*
X151464540Y-183512520D01*
X151426440Y-183517600D01*
X151375640Y-183522680D01*
X151319760Y-183525220D01*
X151319760Y-183525220D01*
X151261340Y-183530300D01*
X151208000Y-183535380D01*
X151167360Y-183540460D01*
X151129260Y-183543000D01*
X151075920Y-183545540D01*
X151014960Y-183550620D01*
X150994640Y-183553160D01*
X150872720Y-183560780D01*
X150481560Y-183134060D01*
X150087860Y-182704800D01*
X150072620Y-182773380D01*
X150062460Y-182821640D01*
X150052300Y-182885140D01*
X150039600Y-182953720D01*
X150026900Y-183022300D01*
X150016740Y-183083260D01*
X150011660Y-183123900D01*
X150009120Y-183131520D01*
X150004040Y-183164540D01*
X149996420Y-183212800D01*
X149991340Y-183248360D01*
X149981180Y-183301700D01*
X149973560Y-183349960D01*
X149971020Y-183375360D01*
X149965940Y-183413460D01*
X149955780Y-183464260D01*
X149950700Y-183499820D01*
X149943080Y-183553160D01*
X149935460Y-183601420D01*
X149930380Y-183624280D01*
X149925300Y-183664920D01*
X149917680Y-183715720D01*
X149912600Y-183743660D01*
X149907520Y-183774140D01*
X149904980Y-183827480D01*
X149899900Y-183898600D01*
X149897360Y-183987500D01*
X149894820Y-184086560D01*
X149892280Y-184195780D01*
X149889740Y-184292300D01*
X149887200Y-184404060D01*
X149884660Y-184510740D01*
X149884660Y-184607260D01*
X149882120Y-184688540D01*
X149879580Y-184757120D01*
X149879580Y-184802840D01*
X149879580Y-184825700D01*
X149879580Y-184861260D01*
X149887200Y-184884120D01*
X149889740Y-184886660D01*
X149894820Y-184886660D01*
X149897360Y-184886660D01*
X149904980Y-184889200D01*
X149915140Y-184894280D01*
X149932920Y-184899360D01*
X149960860Y-184912060D01*
X149998960Y-184927300D01*
X150052300Y-184950160D01*
X150120880Y-184978100D01*
X150207240Y-185013660D01*
X150313920Y-185059380D01*
X150418060Y-185102560D01*
X150877800Y-185298140D01*
X151403580Y-185437840D01*
X151515340Y-185468320D01*
X151622020Y-185496260D01*
X151716000Y-185521660D01*
X151797280Y-185541980D01*
X151860780Y-185557220D01*
X151906500Y-185567380D01*
X151931900Y-185572460D01*
X151934440Y-185572460D01*
X151934440Y-185572460D01*
X151934440Y-185572460D01*
G37*
X151934440Y-185572460D02*
X151931900Y-185559760D01*
X151916660Y-185524200D01*
X151896340Y-185470860D01*
X151868400Y-185399740D01*
X151832840Y-185315920D01*
X151792200Y-185219400D01*
X151746480Y-185112720D01*
X151713460Y-185036520D01*
X151667740Y-184927300D01*
X151624560Y-184823160D01*
X151583920Y-184729180D01*
X151550900Y-184647900D01*
X151525500Y-184581860D01*
X151505180Y-184533600D01*
X151495020Y-184505660D01*
X151492480Y-184498040D01*
X151502640Y-184480260D01*
X151522960Y-184442160D01*
X151550900Y-184388820D01*
X151586460Y-184322780D01*
X151627100Y-184249120D01*
X151670280Y-184170380D01*
X151713460Y-184091640D01*
X151756640Y-184012900D01*
X151797280Y-183939240D01*
X151832840Y-183875740D01*
X151863320Y-183822400D01*
X151886180Y-183784300D01*
X151896340Y-183766520D01*
X151898880Y-183763980D01*
X151903960Y-183774140D01*
X151911580Y-183807160D01*
X151919200Y-183855420D01*
X151929360Y-183913840D01*
X151929360Y-183918920D01*
X151939520Y-183982420D01*
X151949680Y-184035760D01*
X151957300Y-184073860D01*
X151962380Y-184094180D01*
X151972540Y-184086560D01*
X151997940Y-184063700D01*
X152036040Y-184025600D01*
X152086840Y-183974800D01*
X152145260Y-183911300D01*
X152211300Y-183842720D01*
X152279880Y-183766520D01*
X152353540Y-183687780D01*
X152427200Y-183606500D01*
X152495780Y-183527760D01*
X152564360Y-183454100D01*
X152622780Y-183385520D01*
X152676120Y-183324560D01*
X152719300Y-183273760D01*
X152747240Y-183235660D01*
X152754860Y-183225500D01*
X152780260Y-183192480D01*
X152813280Y-183141680D01*
X152856460Y-183078180D01*
X152902180Y-183012140D01*
X152935200Y-182966420D01*
X152991080Y-182885140D01*
X153054580Y-182791160D01*
X153118080Y-182697180D01*
X153176500Y-182610820D01*
X153191740Y-182587960D01*
X153321280Y-182400000D01*
X153026640Y-181970740D01*
X152952980Y-181864060D01*
X152892020Y-181772620D01*
X152838680Y-181696420D01*
X152790420Y-181630380D01*
X152744700Y-181571960D01*
X152701520Y-181513540D01*
X152653260Y-181455120D01*
X152599920Y-181394160D01*
X152536420Y-181323040D01*
X152460220Y-181239220D01*
X152371320Y-181140160D01*
X152366240Y-181135080D01*
X152287500Y-181048720D01*
X152213840Y-180964900D01*
X152147800Y-180891240D01*
X152091920Y-180827740D01*
X152046200Y-180774400D01*
X152013180Y-180738840D01*
X151992860Y-180715980D01*
X151992860Y-180713440D01*
X151982700Y-180700740D01*
X151972540Y-180703280D01*
X151964920Y-180723600D01*
X151954760Y-180761700D01*
X151942060Y-180820120D01*
X151931900Y-180886160D01*
X151903960Y-181058880D01*
X151695680Y-180680420D01*
X151489940Y-180301960D01*
X151718540Y-179766020D01*
X151766800Y-179654260D01*
X151809980Y-179550120D01*
X151850620Y-179456140D01*
X151883640Y-179374860D01*
X151911580Y-179308820D01*
X151931900Y-179260560D01*
X151944600Y-179232620D01*
X151947140Y-179225000D01*
X151934440Y-179227540D01*
X151898880Y-179237700D01*
X151843000Y-179252940D01*
X151769340Y-179270720D01*
X151680440Y-179296120D01*
X151578840Y-179324060D01*
X151467080Y-179352000D01*
X151390880Y-179374860D01*
X150837160Y-179524720D01*
X150438380Y-179694900D01*
X150339320Y-179738080D01*
X150245340Y-179778720D01*
X150156440Y-179814280D01*
X150082780Y-179844760D01*
X150024360Y-179870160D01*
X149983720Y-179885400D01*
X149971020Y-179890480D01*
X149915140Y-179910800D01*
X149884660Y-179933660D01*
X149874500Y-179959060D01*
X149877040Y-179976840D01*
X149879580Y-179997160D01*
X149879580Y-180040340D01*
X149882120Y-180103840D01*
X149884660Y-180182580D01*
X149887200Y-180276560D01*
X149889740Y-180380700D01*
X149892280Y-180492460D01*
X149892280Y-180495000D01*
X149892280Y-180609300D01*
X149894820Y-180718520D01*
X149897360Y-180817580D01*
X149902440Y-180903940D01*
X149904980Y-180975060D01*
X149907520Y-181028400D01*
X149912600Y-181056340D01*
X149920220Y-181107140D01*
X149927840Y-181155400D01*
X149930380Y-181175720D01*
X149935460Y-181213820D01*
X149945620Y-181264620D01*
X149950700Y-181300180D01*
X149958320Y-181350980D01*
X149965940Y-181399240D01*
X149971020Y-181424640D01*
X149976100Y-181465280D01*
X149983720Y-181516080D01*
X149991340Y-181551640D01*
X149998960Y-181599900D01*
X150006580Y-181645620D01*
X150009120Y-181668480D01*
X150021820Y-181762460D01*
X150037060Y-181838660D01*
X150042140Y-181861520D01*
X150049760Y-181897080D01*
X150059920Y-181947880D01*
X150070080Y-182001220D01*
X150077700Y-182049480D01*
X150085320Y-182082500D01*
X150087860Y-182097740D01*
X150090400Y-182097740D01*
X150092940Y-182097740D01*
X150098020Y-182092660D01*
X150108180Y-182079960D01*
X150123420Y-182062180D01*
X150148820Y-182036780D01*
X150181840Y-182001220D01*
X150225020Y-181955500D01*
X150280900Y-181894540D01*
X150349480Y-181820880D01*
X150433300Y-181729440D01*
X150534900Y-181620220D01*
X150550140Y-181602440D01*
X150639040Y-181508460D01*
X150710160Y-181429720D01*
X150766040Y-181368760D01*
X150814300Y-181323040D01*
X150847320Y-181290020D01*
X150875260Y-181267160D01*
X150893040Y-181254460D01*
X150905740Y-181249380D01*
X150910820Y-181249380D01*
X150941300Y-181249380D01*
X150992100Y-181254460D01*
X151053060Y-181259540D01*
X151121640Y-181264620D01*
X151185140Y-181269700D01*
X151241020Y-181272240D01*
X151246100Y-181274780D01*
X151294360Y-181277320D01*
X151355320Y-181282400D01*
X151411200Y-181287480D01*
X151467080Y-181290020D01*
X151517880Y-181295100D01*
X151555980Y-181297640D01*
X151555980Y-181297640D01*
X151589000Y-181302720D01*
X151639800Y-181305260D01*
X151700760Y-181310340D01*
X151731240Y-181312880D01*
X151784580Y-181317960D01*
X151827760Y-181323040D01*
X151855700Y-181325580D01*
X151860780Y-181328120D01*
X151858240Y-181343360D01*
X151850620Y-181376380D01*
X151843000Y-181422100D01*
X151840460Y-181429720D01*
X151830300Y-181485600D01*
X151820140Y-181544020D01*
X151812520Y-181582120D01*
X151804900Y-181620220D01*
X151799820Y-181645620D01*
X151799820Y-181648160D01*
X151797280Y-181665940D01*
X151792200Y-181698960D01*
X151787120Y-181737060D01*
X151779500Y-181785320D01*
X151769340Y-181820880D01*
X151761720Y-181838660D01*
X151749020Y-181848820D01*
X151713460Y-181871680D01*
X151660120Y-181902160D01*
X151594080Y-181937720D01*
X151517880Y-181980900D01*
X151434060Y-182029160D01*
X151342620Y-182077420D01*
X151251180Y-182128220D01*
X151162280Y-182176480D01*
X151075920Y-182222200D01*
X150997180Y-182265380D01*
X150928600Y-182300940D01*
X150875260Y-182328880D01*
X150837160Y-182346660D01*
X150829540Y-182349200D01*
X150778740Y-182374600D01*
X150753340Y-182392380D01*
X150750800Y-182407620D01*
X150773660Y-182425400D01*
X150814300Y-182448260D01*
X150834620Y-182458420D01*
X150877800Y-182481280D01*
X150936220Y-182511760D01*
X151004800Y-182549860D01*
X151086080Y-182593040D01*
X151174980Y-182638760D01*
X151263880Y-182687020D01*
X151357860Y-182737820D01*
X151446760Y-182786080D01*
X151530580Y-182831800D01*
X151606780Y-182872440D01*
X151670280Y-182908000D01*
X151721080Y-182935940D01*
X151754100Y-182953720D01*
X151764260Y-182958800D01*
X151769340Y-182974040D01*
X151774420Y-183007060D01*
X151782040Y-183055320D01*
X151787120Y-183093420D01*
X151799820Y-183169620D01*
X151815060Y-183255980D01*
X151827760Y-183334720D01*
X151832840Y-183352500D01*
X151855700Y-183479500D01*
X151827760Y-183482040D01*
X151761720Y-183487120D01*
X151685520Y-183494740D01*
X151609320Y-183499820D01*
X151538200Y-183504900D01*
X151484860Y-183509980D01*
X151464540Y-183512520D01*
X151426440Y-183517600D01*
X151375640Y-183522680D01*
X151319760Y-183525220D01*
X151319760Y-183525220D01*
X151261340Y-183530300D01*
X151208000Y-183535380D01*
X151167360Y-183540460D01*
X151129260Y-183543000D01*
X151075920Y-183545540D01*
X151014960Y-183550620D01*
X150994640Y-183553160D01*
X150872720Y-183560780D01*
X150481560Y-183134060D01*
X150087860Y-182704800D01*
X150072620Y-182773380D01*
X150062460Y-182821640D01*
X150052300Y-182885140D01*
X150039600Y-182953720D01*
X150026900Y-183022300D01*
X150016740Y-183083260D01*
X150011660Y-183123900D01*
X150009120Y-183131520D01*
X150004040Y-183164540D01*
X149996420Y-183212800D01*
X149991340Y-183248360D01*
X149981180Y-183301700D01*
X149973560Y-183349960D01*
X149971020Y-183375360D01*
X149965940Y-183413460D01*
X149955780Y-183464260D01*
X149950700Y-183499820D01*
X149943080Y-183553160D01*
X149935460Y-183601420D01*
X149930380Y-183624280D01*
X149925300Y-183664920D01*
X149917680Y-183715720D01*
X149912600Y-183743660D01*
X149907520Y-183774140D01*
X149904980Y-183827480D01*
X149899900Y-183898600D01*
X149897360Y-183987500D01*
X149894820Y-184086560D01*
X149892280Y-184195780D01*
X149889740Y-184292300D01*
X149887200Y-184404060D01*
X149884660Y-184510740D01*
X149884660Y-184607260D01*
X149882120Y-184688540D01*
X149879580Y-184757120D01*
X149879580Y-184802840D01*
X149879580Y-184825700D01*
X149879580Y-184861260D01*
X149887200Y-184884120D01*
X149889740Y-184886660D01*
X149894820Y-184886660D01*
X149897360Y-184886660D01*
X149904980Y-184889200D01*
X149915140Y-184894280D01*
X149932920Y-184899360D01*
X149960860Y-184912060D01*
X149998960Y-184927300D01*
X150052300Y-184950160D01*
X150120880Y-184978100D01*
X150207240Y-185013660D01*
X150313920Y-185059380D01*
X150418060Y-185102560D01*
X150877800Y-185298140D01*
X151403580Y-185437840D01*
X151515340Y-185468320D01*
X151622020Y-185496260D01*
X151716000Y-185521660D01*
X151797280Y-185541980D01*
X151860780Y-185557220D01*
X151906500Y-185567380D01*
X151931900Y-185572460D01*
X151934440Y-185572460D01*
X151934440Y-185572460D01*
G36*
X149229340Y-184114500D02*
X149236960Y-184101800D01*
X149244580Y-184071320D01*
X149244580Y-184056080D01*
X149247120Y-184028140D01*
X149252200Y-183977340D01*
X149262360Y-183911300D01*
X149275060Y-183830020D01*
X149290300Y-183746200D01*
X149295380Y-183718260D01*
X149313160Y-183614120D01*
X149333480Y-183499820D01*
X149353800Y-183385520D01*
X149371580Y-183278840D01*
X149386820Y-183197560D01*
X149427460Y-182961340D01*
X149889740Y-182712420D01*
X149993880Y-182656540D01*
X150092940Y-182603200D01*
X150181840Y-182554940D01*
X150263120Y-182511760D01*
X150329160Y-182476200D01*
X150377420Y-182450800D01*
X150405360Y-182435560D01*
X150410440Y-182433020D01*
X150466320Y-182402540D01*
X150410440Y-182372060D01*
X150385040Y-182359360D01*
X150339320Y-182333960D01*
X150278360Y-182300940D01*
X150202160Y-182257760D01*
X150113260Y-182212040D01*
X150016740Y-182158700D01*
X149915140Y-182105360D01*
X149902440Y-182097740D01*
X149803380Y-182044400D01*
X149709400Y-181993600D01*
X149625580Y-181947880D01*
X149554460Y-181909780D01*
X149498580Y-181876760D01*
X149460480Y-181853900D01*
X149440160Y-181843740D01*
X149440160Y-181843740D01*
X149432540Y-181825960D01*
X149422380Y-181785320D01*
X149409680Y-181721820D01*
X149394440Y-181643080D01*
X149376660Y-181546560D01*
X149356340Y-181439880D01*
X149336020Y-181320500D01*
X149323320Y-181241760D01*
X149300460Y-181104600D01*
X149282680Y-180992840D01*
X149267440Y-180903940D01*
X149254740Y-180832820D01*
X149244580Y-180779480D01*
X149236960Y-180743920D01*
X149229340Y-180718520D01*
X149224260Y-180703280D01*
X149216640Y-180698200D01*
X149211560Y-180700740D01*
X149206480Y-180705820D01*
X149203940Y-180708360D01*
X149163300Y-180751540D01*
X149109960Y-180809960D01*
X149049000Y-180878540D01*
X148977880Y-180954740D01*
X148906760Y-181038560D01*
X148830560Y-181124920D01*
X148754360Y-181211280D01*
X148680700Y-181295100D01*
X148609580Y-181373840D01*
X148548620Y-181447500D01*
X148492740Y-181511000D01*
X148452100Y-181561800D01*
X148421620Y-181597360D01*
X148408920Y-181612600D01*
X148309860Y-181762460D01*
X148218420Y-181897080D01*
X148137140Y-182016460D01*
X148066020Y-182120600D01*
X148010140Y-182204420D01*
X147964420Y-182267920D01*
X147933940Y-182313640D01*
X147931400Y-182313640D01*
X147865360Y-182402540D01*
X147900920Y-182450800D01*
X147923780Y-182481280D01*
X147941560Y-182501600D01*
X147944100Y-182504140D01*
X147946640Y-182509220D01*
X147956800Y-182519380D01*
X147966960Y-182537160D01*
X147987280Y-182562560D01*
X148012680Y-182600660D01*
X148048240Y-182654000D01*
X148091420Y-182717500D01*
X148147300Y-182798780D01*
X148213340Y-182900380D01*
X148294620Y-183019760D01*
X148325100Y-183065480D01*
X148370820Y-183134060D01*
X148411460Y-183192480D01*
X148444480Y-183243280D01*
X148469880Y-183276300D01*
X148482580Y-183294080D01*
X148485120Y-183296620D01*
X148487660Y-183299160D01*
X148500360Y-183311860D01*
X148518140Y-183332180D01*
X148543540Y-183360120D01*
X148581640Y-183400760D01*
X148629900Y-183456640D01*
X148695940Y-183527760D01*
X148774680Y-183616660D01*
X148800080Y-183644600D01*
X148828020Y-183675080D01*
X148866120Y-183718260D01*
X148914380Y-183771600D01*
X148965180Y-183827480D01*
X148972800Y-183837640D01*
X149026140Y-183893520D01*
X149076940Y-183951940D01*
X149120120Y-184002740D01*
X149153140Y-184040840D01*
X149155680Y-184043380D01*
X149188700Y-184078940D01*
X149214100Y-184104340D01*
X149229340Y-184114500D01*
X149229340Y-184114500D01*
X149229340Y-184114500D01*
G37*
X149229340Y-184114500D02*
X149236960Y-184101800D01*
X149244580Y-184071320D01*
X149244580Y-184056080D01*
X149247120Y-184028140D01*
X149252200Y-183977340D01*
X149262360Y-183911300D01*
X149275060Y-183830020D01*
X149290300Y-183746200D01*
X149295380Y-183718260D01*
X149313160Y-183614120D01*
X149333480Y-183499820D01*
X149353800Y-183385520D01*
X149371580Y-183278840D01*
X149386820Y-183197560D01*
X149427460Y-182961340D01*
X149889740Y-182712420D01*
X149993880Y-182656540D01*
X150092940Y-182603200D01*
X150181840Y-182554940D01*
X150263120Y-182511760D01*
X150329160Y-182476200D01*
X150377420Y-182450800D01*
X150405360Y-182435560D01*
X150410440Y-182433020D01*
X150466320Y-182402540D01*
X150410440Y-182372060D01*
X150385040Y-182359360D01*
X150339320Y-182333960D01*
X150278360Y-182300940D01*
X150202160Y-182257760D01*
X150113260Y-182212040D01*
X150016740Y-182158700D01*
X149915140Y-182105360D01*
X149902440Y-182097740D01*
X149803380Y-182044400D01*
X149709400Y-181993600D01*
X149625580Y-181947880D01*
X149554460Y-181909780D01*
X149498580Y-181876760D01*
X149460480Y-181853900D01*
X149440160Y-181843740D01*
X149440160Y-181843740D01*
X149432540Y-181825960D01*
X149422380Y-181785320D01*
X149409680Y-181721820D01*
X149394440Y-181643080D01*
X149376660Y-181546560D01*
X149356340Y-181439880D01*
X149336020Y-181320500D01*
X149323320Y-181241760D01*
X149300460Y-181104600D01*
X149282680Y-180992840D01*
X149267440Y-180903940D01*
X149254740Y-180832820D01*
X149244580Y-180779480D01*
X149236960Y-180743920D01*
X149229340Y-180718520D01*
X149224260Y-180703280D01*
X149216640Y-180698200D01*
X149211560Y-180700740D01*
X149206480Y-180705820D01*
X149203940Y-180708360D01*
X149163300Y-180751540D01*
X149109960Y-180809960D01*
X149049000Y-180878540D01*
X148977880Y-180954740D01*
X148906760Y-181038560D01*
X148830560Y-181124920D01*
X148754360Y-181211280D01*
X148680700Y-181295100D01*
X148609580Y-181373840D01*
X148548620Y-181447500D01*
X148492740Y-181511000D01*
X148452100Y-181561800D01*
X148421620Y-181597360D01*
X148408920Y-181612600D01*
X148309860Y-181762460D01*
X148218420Y-181897080D01*
X148137140Y-182016460D01*
X148066020Y-182120600D01*
X148010140Y-182204420D01*
X147964420Y-182267920D01*
X147933940Y-182313640D01*
X147931400Y-182313640D01*
X147865360Y-182402540D01*
X147900920Y-182450800D01*
X147923780Y-182481280D01*
X147941560Y-182501600D01*
X147944100Y-182504140D01*
X147946640Y-182509220D01*
X147956800Y-182519380D01*
X147966960Y-182537160D01*
X147987280Y-182562560D01*
X148012680Y-182600660D01*
X148048240Y-182654000D01*
X148091420Y-182717500D01*
X148147300Y-182798780D01*
X148213340Y-182900380D01*
X148294620Y-183019760D01*
X148325100Y-183065480D01*
X148370820Y-183134060D01*
X148411460Y-183192480D01*
X148444480Y-183243280D01*
X148469880Y-183276300D01*
X148482580Y-183294080D01*
X148485120Y-183296620D01*
X148487660Y-183299160D01*
X148500360Y-183311860D01*
X148518140Y-183332180D01*
X148543540Y-183360120D01*
X148581640Y-183400760D01*
X148629900Y-183456640D01*
X148695940Y-183527760D01*
X148774680Y-183616660D01*
X148800080Y-183644600D01*
X148828020Y-183675080D01*
X148866120Y-183718260D01*
X148914380Y-183771600D01*
X148965180Y-183827480D01*
X148972800Y-183837640D01*
X149026140Y-183893520D01*
X149076940Y-183951940D01*
X149120120Y-184002740D01*
X149153140Y-184040840D01*
X149155680Y-184043380D01*
X149188700Y-184078940D01*
X149214100Y-184104340D01*
X149229340Y-184114500D01*
X149229340Y-184114500D01*
D11*
X170000000Y-182800000D02*
X166400000Y-182800000D01*
X166400000Y-182800000D02*
X166400000Y-186400000D01*
X166400000Y-186400000D02*
X170000000Y-186400000D01*
X170000000Y-186400000D02*
X170000000Y-182800000D01*
X169300000Y-185150000D02*
X167400000Y-185150000D01*
X169300000Y-184050000D02*
X167400000Y-184050000D01*
X168400000Y-184600000D02*
X167950000Y-184600000D01*
X168450000Y-184350000D02*
X168450000Y-184850000D01*
X168450000Y-184600000D02*
X168200000Y-184350000D01*
X168200000Y-184350000D02*
X168200000Y-184850000D01*
X168200000Y-184850000D02*
X168450000Y-184600000D01*
X170000000Y-177800000D02*
X166400000Y-177800000D01*
X166400000Y-177800000D02*
X166400000Y-181400000D01*
X166400000Y-181400000D02*
X170000000Y-181400000D01*
X170000000Y-181400000D02*
X170000000Y-177800000D01*
X169300000Y-180150000D02*
X167400000Y-180150000D01*
X169300000Y-179050000D02*
X167400000Y-179050000D01*
X168400000Y-179600000D02*
X167950000Y-179600000D01*
X168450000Y-179350000D02*
X168450000Y-179850000D01*
X168450000Y-179600000D02*
X168200000Y-179350000D01*
X168200000Y-179350000D02*
X168200000Y-179850000D01*
X168200000Y-179850000D02*
X168450000Y-179600000D01*
X137969000Y-175557000D02*
X144469000Y-175557000D01*
X144469000Y-175557000D02*
X144469000Y-189157000D01*
X144469000Y-189157000D02*
X137969000Y-189157000D01*
X137969000Y-189157000D02*
X137969000Y-175557000D01*
D13*
X157378166Y-178411681D02*
X156918547Y-177952062D01*
X156743454Y-178127155D01*
X156721567Y-178192815D01*
X156721567Y-178236588D01*
X156743454Y-178302247D01*
X156809114Y-178367907D01*
X156874773Y-178389794D01*
X156918546Y-178389794D01*
X156984207Y-178367908D01*
X157159300Y-178192815D01*
X156524587Y-178433568D02*
X156480814Y-178433568D01*
X156415154Y-178455455D01*
X156305721Y-178564888D01*
X156283834Y-178630547D01*
X156283834Y-178674321D01*
X156305721Y-178739980D01*
X156349494Y-178783754D01*
X156437040Y-178827527D01*
X156962320Y-178827527D01*
X156677794Y-179112054D01*
X154384048Y-180573809D02*
X154043571Y-180573809D01*
X153981667Y-180542857D01*
X153950714Y-180480952D01*
X153950714Y-180357143D01*
X153981667Y-180295238D01*
X154353095Y-180573809D02*
X154384048Y-180511905D01*
X154384048Y-180357143D01*
X154353095Y-180295238D01*
X154291190Y-180264286D01*
X154229286Y-180264286D01*
X154167381Y-180295238D01*
X154136429Y-180357143D01*
X154136429Y-180511905D01*
X154105476Y-180573809D01*
X154384048Y-180883333D02*
X153950714Y-180883333D01*
X154074524Y-180883333D02*
X154012619Y-180914285D01*
X153981667Y-180945238D01*
X153950714Y-181007142D01*
X153950714Y-181069047D01*
X154353095Y-181533333D02*
X154384048Y-181471428D01*
X154384048Y-181347619D01*
X154353095Y-181285714D01*
X154291190Y-181254762D01*
X154043571Y-181254762D01*
X153981667Y-181285714D01*
X153950714Y-181347619D01*
X153950714Y-181471428D01*
X153981667Y-181533333D01*
X154043571Y-181564285D01*
X154105476Y-181564285D01*
X154167381Y-181254762D01*
X154384048Y-182121428D02*
X154043571Y-182121428D01*
X153981667Y-182090476D01*
X153950714Y-182028571D01*
X153950714Y-181904762D01*
X153981667Y-181842857D01*
X154353095Y-182121428D02*
X154384048Y-182059524D01*
X154384048Y-181904762D01*
X154353095Y-181842857D01*
X154291190Y-181811905D01*
X154229286Y-181811905D01*
X154167381Y-181842857D01*
X154136429Y-181904762D01*
X154136429Y-182059524D01*
X154105476Y-182121428D01*
X153734048Y-182554761D02*
X153734048Y-182616666D01*
X153765000Y-182678571D01*
X153795952Y-182709523D01*
X153857857Y-182740476D01*
X153981667Y-182771428D01*
X154136429Y-182771428D01*
X154260238Y-182740476D01*
X154322143Y-182709523D01*
X154353095Y-182678571D01*
X154384048Y-182616666D01*
X154384048Y-182554761D01*
X154353095Y-182492857D01*
X154322143Y-182461904D01*
X154260238Y-182430952D01*
X154136429Y-182400000D01*
X153981667Y-182400000D01*
X153857857Y-182430952D01*
X153795952Y-182461904D01*
X153765000Y-182492857D01*
X153734048Y-182554761D01*
X154384048Y-182988095D02*
X153950714Y-183328571D01*
X153950714Y-182988095D02*
X154384048Y-183328571D01*
X153734048Y-183514285D02*
X153734048Y-183916666D01*
X153981667Y-183699999D01*
X153981667Y-183792857D01*
X154012619Y-183854761D01*
X154043571Y-183885714D01*
X154105476Y-183916666D01*
X154260238Y-183916666D01*
X154322143Y-183885714D01*
X154353095Y-183854761D01*
X154384048Y-183792857D01*
X154384048Y-183607142D01*
X154353095Y-183545238D01*
X154322143Y-183514285D01*
X153734048Y-184133333D02*
X153734048Y-184535714D01*
X153981667Y-184319047D01*
X153981667Y-184411905D01*
X154012619Y-184473809D01*
X154043571Y-184504762D01*
X154105476Y-184535714D01*
X154260238Y-184535714D01*
X154322143Y-184504762D01*
X154353095Y-184473809D01*
X154384048Y-184411905D01*
X154384048Y-184226190D01*
X154353095Y-184164286D01*
X154322143Y-184133333D01*
X169441762Y-183624048D02*
X169441762Y-182974048D01*
X169287000Y-182974048D01*
X169194143Y-183005000D01*
X169132238Y-183066905D01*
X169101286Y-183128810D01*
X169070334Y-183252619D01*
X169070334Y-183345476D01*
X169101286Y-183469286D01*
X169132238Y-183531190D01*
X169194143Y-183593095D01*
X169287000Y-183624048D01*
X169441762Y-183624048D01*
X168822714Y-183035952D02*
X168791762Y-183005000D01*
X168729857Y-182974048D01*
X168575095Y-182974048D01*
X168513191Y-183005000D01*
X168482238Y-183035952D01*
X168451286Y-183097857D01*
X168451286Y-183159762D01*
X168482238Y-183252619D01*
X168853667Y-183624048D01*
X168451286Y-183624048D01*
X169441762Y-178624048D02*
X169441762Y-177974048D01*
X169287000Y-177974048D01*
X169194143Y-178005000D01*
X169132238Y-178066905D01*
X169101286Y-178128810D01*
X169070334Y-178252619D01*
X169070334Y-178345476D01*
X169101286Y-178469286D01*
X169132238Y-178531190D01*
X169194143Y-178593095D01*
X169287000Y-178624048D01*
X169441762Y-178624048D01*
X168853667Y-177974048D02*
X168451286Y-177974048D01*
X168667953Y-178221667D01*
X168575095Y-178221667D01*
X168513191Y-178252619D01*
X168482238Y-178283571D01*
X168451286Y-178345476D01*
X168451286Y-178500238D01*
X168482238Y-178562143D01*
X168513191Y-178593095D01*
X168575095Y-178624048D01*
X168760810Y-178624048D01*
X168822714Y-178593095D01*
X168853667Y-178562143D01*
X145794048Y-181820238D02*
X145144048Y-181820238D01*
X145144048Y-182067857D01*
X145175000Y-182129762D01*
X145205952Y-182160714D01*
X145267857Y-182191666D01*
X145360714Y-182191666D01*
X145422619Y-182160714D01*
X145453571Y-182129762D01*
X145484524Y-182067857D01*
X145484524Y-181820238D01*
X145794048Y-182810714D02*
X145794048Y-182439286D01*
X145794048Y-182625000D02*
X145144048Y-182625000D01*
X145236905Y-182563095D01*
X145298810Y-182501190D01*
X145329762Y-182439286D01*
M02*
