M48
INCH,TZ
T10C0.028
T11C0.047
T12C0.055
T13C0.020
T14C0.039
%
T10
X065413Y-69902
X065413Y-71870
X067028Y-71516
X067028Y-73484
X055106Y-69491
X055106Y-74097
T11
X055460Y-70889
X055460Y-72700
T12
X057271Y-69668
X057271Y-73920
T13
X060236Y-69685
X062665Y-71991
X065197Y-72835
X065197Y-73622
X065669Y-70394
X065669Y-73228
X066220Y-69449
X066535Y-73858
T14
X056287Y-70416
X056287Y-71400
X056287Y-72188
X056287Y-73172
M30

