G04 #@! TF.FileFunction,Legend,Bot*
%FSLAX46Y46*%
G04 Gerber Fmt 4.6, Leading zero omitted, Abs format (unit mm)*
G04 Created by KiCad (PCBNEW 0.201411101246+5259~19~ubuntu14.04.1-product) date mar 18 nov 2014 21:31:49 CET*
%MOMM*%
G01*
G04 APERTURE LIST*
%ADD10C,0.020000*%
%ADD11C,0.150000*%
%ADD12C,0.130000*%
G04 APERTURE END LIST*
D10*
D11*
X136017000Y-187864000D02*
X147767000Y-187864000D01*
X147767000Y-175864000D02*
X136017000Y-175864000D01*
X136017000Y-175864000D02*
X136017000Y-187864000D01*
X153470600Y-183889400D02*
X153470600Y-182889400D01*
X153470600Y-180889400D02*
X153470600Y-179889400D01*
X163470600Y-180889400D02*
X163470600Y-179889400D01*
X163470600Y-183889400D02*
X163470600Y-182889400D01*
X153470600Y-176889400D02*
X163470600Y-176889400D01*
X163470600Y-186889400D02*
X153470600Y-186889400D01*
X159601971Y-181889400D02*
G75*
G03X159601971Y-181889400I-1131371J0D01*
G01*
D12*
X147545762Y-187238048D02*
X147545762Y-186588048D01*
X147298143Y-186588048D01*
X147236238Y-186619000D01*
X147205286Y-186649952D01*
X147174334Y-186711857D01*
X147174334Y-186804714D01*
X147205286Y-186866619D01*
X147236238Y-186897571D01*
X147298143Y-186928524D01*
X147545762Y-186928524D01*
X146555286Y-187238048D02*
X146926714Y-187238048D01*
X146741000Y-187238048D02*
X146741000Y-186588048D01*
X146802905Y-186680905D01*
X146864810Y-186742810D01*
X146926714Y-186773762D01*
X152752762Y-187238048D02*
X152752762Y-186588048D01*
X152505143Y-186588048D01*
X152443238Y-186619000D01*
X152412286Y-186649952D01*
X152381334Y-186711857D01*
X152381334Y-186804714D01*
X152412286Y-186866619D01*
X152443238Y-186897571D01*
X152505143Y-186928524D01*
X152752762Y-186928524D01*
X152133714Y-186649952D02*
X152102762Y-186619000D01*
X152040857Y-186588048D01*
X151886095Y-186588048D01*
X151824191Y-186619000D01*
X151793238Y-186649952D01*
X151762286Y-186711857D01*
X151762286Y-186773762D01*
X151793238Y-186866619D01*
X152164667Y-187238048D01*
X151762286Y-187238048D01*
M02*
