G04 #@! TF.FileFunction,Copper,L1,Top,Signal*
%FSLAX46Y46*%
G04 Gerber Fmt 4.6, Leading zero omitted, Abs format (unit mm)*
G04 Created by KiCad (PCBNEW 0.201510311201+6287~30~ubuntu14.04.1-product) date dom 03 abr 2016 23:42:29 CEST*
%MOMM*%
G01*
G04 APERTURE LIST*
%ADD10C,0.020000*%
%ADD11R,0.889000X1.397000*%
%ADD12R,0.800100X1.000760*%
%ADD13R,1.397000X0.889000*%
%ADD14R,2.200000X0.700000*%
%ADD15C,1.500000*%
%ADD16O,3.000000X1.100000*%
%ADD17C,0.900000*%
%ADD18C,0.635000*%
%ADD19C,0.508000*%
%ADD20C,0.381000*%
%ADD21C,0.254000*%
G04 APERTURE END LIST*
D10*
D11*
X155247500Y-177600000D03*
X157152500Y-177600000D03*
D12*
X149969000Y-186856820D03*
X149016500Y-184657180D03*
X150921500Y-184657180D03*
D11*
X150921500Y-178357000D03*
X149016500Y-178357000D03*
X149016500Y-180607000D03*
X150921500Y-180607000D03*
X149016500Y-182657000D03*
X150921500Y-182657000D03*
D13*
X159200000Y-185647500D03*
X159200000Y-187552500D03*
D11*
X161216500Y-177657000D03*
X163121500Y-177657000D03*
D13*
X168400000Y-177847500D03*
X168400000Y-179752500D03*
X164200000Y-186952500D03*
X164200000Y-185047500D03*
X161600000Y-185647500D03*
X161600000Y-187552500D03*
X154559000Y-188023500D03*
X154559000Y-186118500D03*
D14*
X154659000Y-179702000D03*
X154659000Y-180972000D03*
X154659000Y-182242000D03*
X154659000Y-183512000D03*
X162279000Y-183512000D03*
X162279000Y-182242000D03*
X162279000Y-180972000D03*
X162279000Y-179702000D03*
D13*
X156845000Y-188023500D03*
X156845000Y-186118500D03*
X167800000Y-183247500D03*
X167800000Y-185152500D03*
X165200000Y-180952500D03*
X165200000Y-179047500D03*
D15*
X142969000Y-178857000D03*
X142969000Y-181357000D03*
X142969000Y-183357000D03*
X142969000Y-185857000D03*
D16*
X140869000Y-176507000D03*
X140869000Y-188207000D03*
D17*
X153000000Y-177000000D03*
X169000000Y-187600000D03*
X159169000Y-182857000D03*
X165600000Y-185000000D03*
X168200000Y-176400000D03*
X165600000Y-187000000D03*
X166800000Y-186000000D03*
X166800000Y-178800000D03*
D18*
X150921500Y-177000000D02*
X150921500Y-176921500D01*
X150921500Y-176921500D02*
X150200000Y-176200000D01*
X148600000Y-176200000D02*
X148600000Y-176226000D01*
X145969000Y-178857000D02*
X148600000Y-176226000D01*
X142969000Y-178857000D02*
X145969000Y-178857000D01*
X150200000Y-176200000D02*
X148600000Y-176200000D01*
X148600000Y-176200000D02*
X148600000Y-176200000D01*
D19*
X161216500Y-177657000D02*
X159759500Y-176200000D01*
X156000000Y-176200000D02*
X155200000Y-177000000D01*
X159759500Y-176200000D02*
X156000000Y-176200000D01*
X155200000Y-177000000D02*
X155247500Y-177600000D01*
X155247500Y-177600000D02*
X155247500Y-177047500D01*
X155247500Y-177047500D02*
X155200000Y-177000000D01*
X155200000Y-177000000D02*
X153000000Y-177000000D01*
X153000000Y-177000000D02*
X150921500Y-177000000D01*
X150921500Y-178357000D02*
X150921500Y-177000000D01*
D20*
X162279000Y-179702000D02*
X162114000Y-179702000D01*
X162114000Y-179702000D02*
X161216500Y-178804500D01*
X161216500Y-178804500D02*
X161216500Y-177657000D01*
X161116500Y-177557000D02*
X161216500Y-177657000D01*
D19*
X162279000Y-179702000D02*
X161414000Y-179702000D01*
D20*
X162421500Y-179559500D02*
X162279000Y-179702000D01*
X161600000Y-187552500D02*
X162447500Y-188400000D01*
X168200000Y-188400000D02*
X169000000Y-187600000D01*
X162447500Y-188400000D02*
X168200000Y-188400000D01*
D19*
X161600000Y-187552500D02*
X161600000Y-187600000D01*
D20*
X156845000Y-186118500D02*
X157326500Y-186600000D01*
X159200000Y-187000000D02*
X159200000Y-187552500D01*
X158800000Y-186600000D02*
X159200000Y-187000000D01*
X157326500Y-186600000D02*
X158800000Y-186600000D01*
X159200000Y-187552500D02*
X161600000Y-187552500D01*
X154659000Y-183512000D02*
X156088000Y-183512000D01*
X157152500Y-182447500D02*
X157152500Y-177600000D01*
X156088000Y-183512000D02*
X157152500Y-182447500D01*
D19*
X149969000Y-186856820D02*
X152069180Y-186856820D01*
X152069180Y-186856820D02*
X152807500Y-186118500D01*
X152807500Y-186118500D02*
X154559000Y-186118500D01*
X154659000Y-186018500D02*
X154559000Y-186118500D01*
X154559000Y-186118500D02*
X156845000Y-186118500D01*
X154659000Y-183512000D02*
X154659000Y-186018500D01*
X142969000Y-185857000D02*
X143569000Y-185257000D01*
X148568820Y-186856820D02*
X149969000Y-186856820D01*
X146969000Y-185257000D02*
X148568820Y-186856820D01*
X143569000Y-185257000D02*
X146969000Y-185257000D01*
X149016500Y-182657000D02*
X149016500Y-184657180D01*
X142969000Y-183357000D02*
X145469000Y-183357000D01*
X145469000Y-183357000D02*
X145969000Y-182857000D01*
X145969000Y-182857000D02*
X149016500Y-182857000D01*
D21*
X150921500Y-184657180D02*
X149969000Y-183704680D01*
X149969000Y-181559500D02*
X149016500Y-180607000D01*
X149969000Y-183704680D02*
X149969000Y-181559500D01*
D19*
X149016500Y-178357000D02*
X149016500Y-180607000D01*
X149016500Y-180607000D02*
X145719000Y-180607000D01*
X145719000Y-180607000D02*
X144969000Y-181357000D01*
X144969000Y-181357000D02*
X142969000Y-181357000D01*
X154659000Y-180972000D02*
X151286500Y-180972000D01*
X151286500Y-180972000D02*
X150921500Y-180607000D01*
X154659000Y-182242000D02*
X151536500Y-182242000D01*
X151536500Y-182242000D02*
X150921500Y-182857000D01*
D20*
X159200000Y-185647500D02*
X159200000Y-182888000D01*
X159200000Y-182888000D02*
X159169000Y-182857000D01*
X159169000Y-182857000D02*
X159131000Y-182857000D01*
X159131000Y-182857000D02*
X159169000Y-182857000D01*
X159169000Y-182857000D02*
X159131000Y-182857000D01*
X159131000Y-182857000D02*
X159131000Y-181695000D01*
X159854000Y-180972000D02*
X162279000Y-180972000D01*
X159131000Y-181695000D02*
X159854000Y-180972000D01*
D19*
X161600000Y-185647500D02*
X162200000Y-185047500D01*
X162200000Y-185047500D02*
X164200000Y-185047500D01*
D20*
X165600000Y-185000000D02*
X164247500Y-185000000D01*
X164247500Y-185000000D02*
X164200000Y-185047500D01*
D19*
X164378500Y-176400000D02*
X168200000Y-176400000D01*
X163121500Y-177657000D02*
X164378500Y-176400000D01*
X168200000Y-176400000D02*
X168200000Y-177647500D01*
X168200000Y-177647500D02*
X168400000Y-177847500D01*
D20*
X164200000Y-186952500D02*
X164247500Y-187000000D01*
X164247500Y-187000000D02*
X168200000Y-187000000D01*
X168400000Y-181600000D02*
X168400000Y-179752500D01*
X169400000Y-182600000D02*
X168400000Y-181600000D01*
X169400000Y-185800000D02*
X169400000Y-182600000D01*
X168200000Y-187000000D02*
X169400000Y-185800000D01*
X164247500Y-187000000D02*
X165600000Y-187000000D01*
D19*
X166800000Y-186000000D02*
X167647500Y-185152500D01*
X167647500Y-185152500D02*
X167800000Y-185152500D01*
X166800000Y-178800000D02*
X165447500Y-178800000D01*
X165447500Y-178800000D02*
X165200000Y-179047500D01*
X162279000Y-183512000D02*
X167535500Y-183512000D01*
X167535500Y-183512000D02*
X167800000Y-183247500D01*
D20*
X162279000Y-183512000D02*
X162291000Y-183500000D01*
D19*
X162279000Y-182242000D02*
X163910500Y-182242000D01*
X163910500Y-182242000D02*
X165200000Y-180952500D01*
D21*
X154559000Y-188023500D02*
X148185500Y-188023500D01*
X142669000Y-188207000D02*
X144669000Y-186207000D01*
X144669000Y-186207000D02*
X146369000Y-186207000D01*
X140869000Y-188207000D02*
X142669000Y-188207000D01*
X148185500Y-188023500D02*
X146369000Y-186207000D01*
D20*
X156845000Y-188023500D02*
X154559000Y-188023500D01*
D18*
X140869000Y-176507000D02*
X140819000Y-176507000D01*
X140819000Y-176507000D02*
X138969000Y-178357000D01*
X138969000Y-178357000D02*
X138969000Y-186107000D01*
X138969000Y-186107000D02*
X138969000Y-186307000D01*
X138969000Y-186307000D02*
X140869000Y-188207000D01*
M02*
