G04 #@! TF.FileFunction,Copper,L2,Bot,Signal*
%FSLAX46Y46*%
G04 Gerber Fmt 4.6, Leading zero omitted, Abs format (unit mm)*
G04 Created by KiCad (PCBNEW 0.201510311201+6287~30~ubuntu14.04.1-product) date dom 03 abr 2016 23:42:29 CEST*
%MOMM*%
G01*
G04 APERTURE LIST*
%ADD10C,0.020000*%
%ADD11R,0.797560X0.797560*%
%ADD12C,1.500000*%
%ADD13O,3.000000X1.100000*%
%ADD14C,0.900000*%
%ADD15C,0.508000*%
%ADD16C,0.381000*%
G04 APERTURE END LIST*
D10*
G36*
X157577639Y-186536575D02*
X156163425Y-185122361D01*
X157436217Y-183849569D01*
X158850431Y-185263783D01*
X157577639Y-186536575D01*
X157577639Y-186536575D01*
G37*
G36*
X163163783Y-180950431D02*
X161749569Y-179536217D01*
X163022361Y-178263425D01*
X164436575Y-179677639D01*
X163163783Y-180950431D01*
X163163783Y-180950431D01*
G37*
G36*
X161944024Y-186766384D02*
X160989430Y-185811790D01*
X161696536Y-185104684D01*
X162651130Y-186059278D01*
X161944024Y-186766384D01*
X161944024Y-186766384D01*
G37*
G36*
X156888210Y-181710570D02*
X155933616Y-180755976D01*
X156640722Y-180048870D01*
X157595316Y-181003464D01*
X156888210Y-181710570D01*
X156888210Y-181710570D01*
G37*
G36*
X162951651Y-185758757D02*
X161997057Y-184804163D01*
X162704163Y-184097057D01*
X163658757Y-185051651D01*
X162951651Y-185758757D01*
X162951651Y-185758757D01*
G37*
G36*
X157895837Y-180702943D02*
X156941243Y-179748349D01*
X157648349Y-179041243D01*
X158602943Y-179995837D01*
X157895837Y-180702943D01*
X157895837Y-180702943D01*
G37*
G36*
X163959278Y-184751130D02*
X163004684Y-183796536D01*
X163711790Y-183089430D01*
X164666384Y-184044024D01*
X163959278Y-184751130D01*
X163959278Y-184751130D01*
G37*
G36*
X158903464Y-179695316D02*
X157948870Y-178740722D01*
X158655976Y-178033616D01*
X159610570Y-178988210D01*
X158903464Y-179695316D01*
X158903464Y-179695316D01*
G37*
D11*
X167450700Y-184600000D03*
X168949300Y-184600000D03*
X167450700Y-179600000D03*
X168949300Y-179600000D03*
D12*
X142969000Y-178857000D03*
X142969000Y-181357000D03*
X142969000Y-183357000D03*
X142969000Y-185857000D03*
D13*
X140869000Y-176507000D03*
X140869000Y-188207000D03*
D14*
X153000000Y-177000000D03*
X169000000Y-187600000D03*
X159169000Y-182857000D03*
X165600000Y-185000000D03*
X168200000Y-176400000D03*
X165600000Y-187000000D03*
X166800000Y-186000000D03*
X166800000Y-178800000D03*
D15*
X156764466Y-180879720D02*
X153000000Y-177115254D01*
X153000000Y-177115254D02*
X153000000Y-177000000D01*
D16*
X168949300Y-184600000D02*
X168949300Y-179600000D01*
X169000000Y-187600000D02*
X169000000Y-184650700D01*
X169000000Y-184650700D02*
X168949300Y-184600000D01*
X162896907Y-184884907D02*
X160869000Y-182857000D01*
X160869000Y-182857000D02*
X159169000Y-182857000D01*
X163835534Y-183920280D02*
X163835534Y-183364466D01*
X163835534Y-183920280D02*
X164915254Y-185000000D01*
X164915254Y-185000000D02*
X165600000Y-185000000D01*
D15*
X158779720Y-178864466D02*
X161244186Y-176400000D01*
X161244186Y-176400000D02*
X168200000Y-176400000D01*
D16*
X162884746Y-187000000D02*
X161820280Y-185935534D01*
X165600000Y-187000000D02*
X162884746Y-187000000D01*
D15*
X167450700Y-184600000D02*
X167450700Y-185349300D01*
X167450700Y-185349300D02*
X166800000Y-186000000D01*
X167450700Y-179600000D02*
X166800000Y-178949300D01*
X166800000Y-178949300D02*
X166800000Y-178800000D01*
M02*
